<svg width="500" height="500" xmlns="http://www.w3.org/2000/svg">
 <metadata id="metadata2316">image/svg+xml</metadata>

 <style type="text/css">.st0{fill:#DD0031;}
	.st1{fill:#C3002F;}
	.st2{fill:#FFFFFF;}</style>
 <g>
  <title>background</title>
  <rect fill="none" id="canvas_background" height="602" width="802" y="-1" x="-1"/>
 </g>
 <g>
  <title>Layer 1</title>
  <g stroke="null" id="g2309">
   <polygon stroke="null" id="polygon2303" points="263.49998474121094,26 61.89999961853027,100.20199584960938 92.64886856079102,375.33050537109375 263.49998474121094,472.9999694824219 263.49998474121094,472.9999694824219 263.49998474121094,472.9999694824219 434.35107421875,375.33050537109375 465.0999755859375,100.20199584960938 263.49998474121094,26 " class="st0"/>
   <polygon stroke="null" id="polygon2305" points="263.49998474121094,75.39349365234375 263.49998474121094,301.7989807128906 263.49998474121094,301.7989807128906 263.49998474121094,472.9999694824219 263.49998474121094,472.9999694824219 434.35107421875,375.33050537109375 465.0999755859375,100.20199584960938 263.49998474121094,26 263.49998474121094,75.61699676513672 " class="st1"/>
   <path stroke="null" id="path2307" d="m263.49999,75.3935l-126.02706,291.66749l0,0l46.98947,0l0,0l25.33534,-65.262l106.97142,0l25.33534,65.262l0,0l46.98947,0l0,0l-125.59398,-291.66749l0,0l0,0zm36.81203,186.17549l-73.62405,0l36.81203,-91.4115l36.81203,91.4115z" class="st2"/>
  </g>
 </g>
</svg>