<svg width="500" height="500" xmlns="http://www.w3.org/2000/svg">
 <defs>
  <linearGradient x1="0.00001" y1="0.49977" x2="0.99994" y2="0.49977" id="b">
   <stop offset="0.00562" stop-color="#fff"/>
   <stop offset="0.02054" stop-color="#fcfbfa"/>
   <stop offset="0.22389" stop-color="#d7c7ba"/>
   <stop offset="0.41813" stop-color="#b99c85"/>
   <stop offset="0.59799" stop-color="#a17b5c"/>
   <stop offset="0.76048" stop-color="#90633e"/>
   <stop offset="0.89985" stop-color="#86542c"/>
   <stop offset="1" stop-color="#824f26"/>
  </linearGradient>
  <linearGradient x1="0.49997" y1="1.00035" x2="0.49997" y2="0.00039" id="c">
   <stop offset="0.00562" stop-color="#824f26"/>
   <stop offset="0.19033" stop-color="#5f3a1c"/>
   <stop offset="0.43913" stop-color="#362110"/>
   <stop offset="0.66569" stop-color="#180f07"/>
   <stop offset="0.86023" stop-color="#060402"/>
   <stop offset="1"/>
  </linearGradient>
  <linearGradient x1="0" y1="0.50027" x2="1" y2="0.50027" id="d">
   <stop offset="0.00562" stop-color="#fff"/>
   <stop offset="0.02054" stop-color="#fcfbfa"/>
   <stop offset="0.22389" stop-color="#d7c7ba"/>
   <stop offset="0.41813" stop-color="#b99c85"/>
   <stop offset="0.59799" stop-color="#a17b5c"/>
   <stop offset="0.76048" stop-color="#90633e"/>
   <stop offset="0.89985" stop-color="#86542c"/>
   <stop offset="1" stop-color="#824f26"/>
  </linearGradient>
  <linearGradient x1="-0.00004" y1="0.49997" x2="0.99994" y2="0.49997" id="e">
   <stop offset="0.00562" stop-color="#c77700"/>
   <stop offset="0.02279" stop-color="#cb7d07"/>
   <stop offset="0.13152" stop-color="#e19f30"/>
   <stop offset="0.23044" stop-color="#f2b84e"/>
   <stop offset="0.31535" stop-color="#fbc760"/>
   <stop offset="0.3764" stop-color="#fc6"/>
   <stop offset="0.48154" stop-color="#f5c25c"/>
   <stop offset="0.657" stop-color="#dca943"/>
   <stop offset="0.87984" stop-color="#b27f19"/>
   <stop offset="1" stop-color="#960"/>
  </linearGradient>
  <linearGradient x1="1.0001" y1="0.48328" x2="0.00014" y2="0.48328" id="f">
   <stop offset="0.00562" stop-color="#f0f0f0"/>
   <stop offset="0.14274" stop-color="#eeedec"/>
   <stop offset="0.28846" stop-color="#e9e6df"/>
   <stop offset="0.43813" stop-color="#e1d9ca"/>
   <stop offset="0.59053" stop-color="#d5c7ac"/>
   <stop offset="0.74511" stop-color="#c6b186"/>
   <stop offset="0.89929" stop-color="#b39557"/>
   <stop offset="0.98315" stop-color="#a8843b"/>
  </linearGradient>
  <linearGradient x1="-0.00006" y1="0.49969" x2="1.0006" y2="0.49969" id="g">
   <stop offset="0.00562" stop-color="#fff"/>
   <stop offset="1" stop-color="#a8843b"/>
  </linearGradient>
  <linearGradient x1="0.05635" y1="0.50025" x2="0.94312" y2="0.50025" id="h">
   <stop offset="0.00562" stop-color="#d6c5a0"/>
   <stop offset="0.19188" stop-color="#d4c29c"/>
   <stop offset="0.3897" stop-color="#ceba8f"/>
   <stop offset="0.59288" stop-color="#c5ac7a"/>
   <stop offset="0.79833" stop-color="#b7995c"/>
   <stop offset="0.98315" stop-color="#a8843b"/>
  </linearGradient>
  <linearGradient x1="0.00026" y1="0.50037" x2="1.00032" y2="0.50037" id="i">
   <stop offset="0.00562" stop-color="#fff"/>
   <stop offset="1" stop-color="#a8843b"/>
  </linearGradient>
  <linearGradient x1="0.50025" y1="1.00012" x2="0.50025" y2="0.00007" id="j">
   <stop offset="0.00562" stop-color="#fff"/>
   <stop offset="1" stop-color="#a8843b"/>
  </linearGradient>
  <linearGradient x1="-0.00003" y1="0.50051" x2="0.99981" y2="0.50051" id="k">
   <stop offset="0.00562" stop-color="#fff"/>
   <stop offset="1" stop-color="#a8843b"/>
  </linearGradient>
  <linearGradient x1="0" y1="0.50034" x2="0.99997" y2="0.50034" id="l">
   <stop offset="0.00562" stop-color="#fff"/>
   <stop offset="1" stop-color="#a8843b"/>
  </linearGradient>
  <linearGradient x1="-0.00007" y1="0.49991" x2="0.99977" y2="0.49991" id="m">
   <stop offset="0.00562" stop-color="#fff"/>
   <stop offset="0.28258" stop-color="#fbfbfc"/>
   <stop offset="0.57662" stop-color="#eeeef2"/>
   <stop offset="0.8776" stop-color="#d9d9e3"/>
   <stop offset="1" stop-color="#cecedb"/>
  </linearGradient>
  <linearGradient x1="-0.00112" y1="0.50073" x2="1.001" y2="0.50073" id="n">
   <stop offset="0.00562" stop-color="#fff"/>
   <stop offset="0.16022" stop-color="#fcfcfb"/>
   <stop offset="0.32445" stop-color="#f5f4ee"/>
   <stop offset="0.49317" stop-color="#e8e5d9"/>
   <stop offset="0.66499" stop-color="#d6d2bb"/>
   <stop offset="0.83738" stop-color="#bfb895"/>
   <stop offset="0.98315" stop-color="#a89f6f"/>
  </linearGradient>
  <linearGradient x1="1.00001" y1="0.5" x2="0.00003" y2="0.5" id="o">
   <stop offset="0.00562" stop-color="#f0f0f0"/>
   <stop offset="0.14274" stop-color="#eeedec"/>
   <stop offset="0.28846" stop-color="#e9e6df"/>
   <stop offset="0.43813" stop-color="#e1d9ca"/>
   <stop offset="0.59053" stop-color="#d5c7ac"/>
   <stop offset="0.74511" stop-color="#c6b186"/>
   <stop offset="0.89929" stop-color="#b39557"/>
   <stop offset="0.98315" stop-color="#a8843b"/>
  </linearGradient>
  <linearGradient x1="0.00044" y1="0.49979" x2="0.99973" y2="0.49979" id="p">
   <stop offset="0.00562" stop-color="#fff"/>
   <stop offset="0.5618" stop-color="#e2e2e2"/>
   <stop offset="1" stop-color="#cbc7b1"/>
  </linearGradient>
  <linearGradient x1="-0.00189" y1="0.50752" x2="0.99884" y2="0.50752" id="q">
   <stop offset="0.00562" stop-color="#fff"/>
   <stop offset="0.5618" stop-color="#e2e2e2"/>
   <stop offset="1" stop-color="#cbc7b1"/>
  </linearGradient>
  <linearGradient x1="-0.00014" y1="0.50211" x2="0.9997" y2="0.50211" id="r">
   <stop offset="0.00562" stop-color="#e6e6e6"/>
   <stop offset="0.17653" stop-color="#e4e3e2"/>
   <stop offset="0.35801" stop-color="#dddcd5"/>
   <stop offset="0.54443" stop-color="#d2cfc0"/>
   <stop offset="0.73422" stop-color="#c3bda2"/>
   <stop offset="0.9249" stop-color="#afa77c"/>
   <stop offset="0.98315" stop-color="#a89f6f"/>
  </linearGradient>
  <linearGradient x1="-0.00018" y1="0.50017" x2="0.99964" y2="0.50017" id="s">
   <stop offset="0.00562" stop-color="#fff"/>
   <stop offset="0.5618" stop-color="#e2e2e2"/>
   <stop offset="1" stop-color="#cbc7b1"/>
  </linearGradient>
  <linearGradient x1="0.00035" y1="0.5003" x2="0.99989" y2="0.5003" id="t">
   <stop offset="0.00562" stop-color="#fff"/>
   <stop offset="0.5618" stop-color="#e2e2e2"/>
   <stop offset="1" stop-color="#cbc7b1"/>
  </linearGradient>
  <linearGradient x1="0.99967" y1="0.50001" x2="-0.00006" y2="0.50001" id="u">
   <stop offset="0.00562" stop-color="#fff"/>
   <stop offset="0.16022" stop-color="#fcfcfb"/>
   <stop offset="0.32445" stop-color="#f5f4ee"/>
   <stop offset="0.49317" stop-color="#e8e5d9"/>
   <stop offset="0.66499" stop-color="#d6d2bb"/>
   <stop offset="0.83738" stop-color="#bfb895"/>
   <stop offset="0.98315" stop-color="#a89f6f"/>
  </linearGradient>
  <linearGradient x1="0.00008" y1="0.49997" x2="0.99998" y2="0.49997" id="v">
   <stop offset="0.00562" stop-color="#fff"/>
   <stop offset="0.41573" stop-color="#e2e2e2"/>
   <stop offset="1" stop-color="#cbc7b1"/>
  </linearGradient>
  <linearGradient x1="0.0326" y1="0.50003" x2="0.96651" y2="0.50003" id="w">
   <stop offset="0.00562" stop-color="#695600"/>
   <stop offset="1" stop-color="#7d7a6d"/>
  </linearGradient>
  <linearGradient x1="-0.00003" y1="0.50255" x2="1" y2="0.50255" id="x">
   <stop offset="0.00562" stop-color="#033"/>
   <stop offset="0.02279" stop-color="#003a33"/>
   <stop offset="0.13152" stop-color="#006333"/>
   <stop offset="0.23044" stop-color="#008133"/>
   <stop offset="0.31535" stop-color="#009333"/>
   <stop offset="0.3764" stop-color="#093"/>
   <stop offset="0.55312" stop-color="#00902a"/>
   <stop offset="0.84711" stop-color="#007910"/>
   <stop offset="1" stop-color="#006a00"/>
  </linearGradient>
  <linearGradient x1="0.50003" y1="1.00006" x2="0.50003" y2="0.00008" id="y">
   <stop offset="0.00562" stop-color="#c76200"/>
   <stop offset="0.02378" stop-color="#c77100"/>
   <stop offset="0.03933" stop-color="#c77700"/>
   <stop offset="0.70225" stop-color="#fc6"/>
   <stop offset="0.75245" stop-color="#f5c25c"/>
   <stop offset="0.83623" stop-color="#dca943"/>
   <stop offset="0.94263" stop-color="#b27f19"/>
   <stop offset="1" stop-color="#960"/>
  </linearGradient>
  <linearGradient x1="0.82274" y1="1.01857" x2="0.18235" y2="0.05961" id="a">
   <stop offset="0.00562" stop-color="#633"/>
   <stop offset="0.47398" stop-color="#6f3e2b"/>
   <stop offset="1" stop-color="#744426"/>
  </linearGradient>
 </defs>
 <g>
  <title>background</title>
  <rect fill="none" id="canvas_background" height="502" width="502" y="-1" x="-1"/>
 </g>
 <g>
  <title>Layer 1</title>
  <g stroke="null" id="svg_1">
   <path stroke="null" id="svg_2" d="m325.05135,298.443l-135.17038,5.68164c-3.54113,0.14936 -6.33921,3.21605 -6.33921,6.94834l0,28.91069c-24.19952,17.62253 -25.89623,25.53224 -25.89623,28.68987c0,0.27855 0.01287,0.52302 0.02418,0.73011c0.28045,5.33527 3.31551,14.44352 5.54466,20.52282c-1.43289,0.89304 -3.03179,1.88814 -3.03179,1.88814c-1.96475,1.22254 -3.18974,3.43009 -3.2414,5.83448c0,0 -0.36105,17.14332 -0.36105,17.19427c0,1.39902 0.40133,2.76779 1.15084,3.92582c1.71981,2.64886 19.18202,25.79654 102.02849,22.7189c83.83511,-3.11085 95.41992,-15.67284 100.10237,-28.27604c0.2998,-0.80836 0.45453,-1.66749 0.45453,-2.53358l0,-15.90705c0,-1.74556 -0.62215,-3.42661 -1.74391,-4.71035c0,0 -3.0511,-3.4946 -5.50109,-6.29977c1.89873,-5.23668 6.09098,-16.80704 6.09098,-16.80704c0.29336,-0.80485 0.4352,-1.64706 0.4352,-2.47915c0,-1.78973 -0.656,-3.54885 -1.88899,-4.87328c-1.76009,-1.88814 -15.73117,-16.75279 -25.79225,-23.45614l0,-30.75206c0,-1.89492 -0.73176,-3.70517 -2.02763,-5.01603c-1.2959,-1.31087 -3.04153,-2.01038 -4.8371,-1.93578l-0.00023,0.00122z" fill="url(#a)"/>
   <path stroke="null" id="svg_3" d="m190.13845,311.06654l0,32.57082s-26.24283,18.55626 -25.88467,25.37575c0.35943,6.81584 7.19021,23.8578 7.19021,23.8578l-7.90916,4.9244l-0.35943,17.04143s14.7384,22.72237 96.34585,19.69342c81.602,-3.0293 90.95039,-15.14981 94.187,-23.8578l0,-15.90705l-8.26864,-9.46818l7.54968,-20.82884s-18.69678,-20.07421 -27.68041,-24.24033l0,-34.83993l-135.17038,5.67816l-0.00005,0.00035z" fill="url(#y)"/>
   <path stroke="null" id="svg_4" d="m259.5268,425.37392c-76.49868,2.83908 -94.23982,-16.9498 -96.15934,-19.43956l-0.18697,8.83317s14.7384,22.72237 96.34585,19.69342c81.602,-3.0293 90.95039,-15.14981 94.187,-23.8578l0,-9.09121c-3.23645,8.71094 -12.58501,20.83058 -94.187,23.86127l0.00046,0.0007z" fill="url(#x)"/>
   <path stroke="null" id="svg_5" fill="url(#w)" d="m282.71622,44.89414l0.64369,-0.852c-2.70681,2.4169 -19.22824,9.84149 -33.63704,15.63163c-6.12333,-0.74768 -16.68648,-0.73029 -31.57392,0.08694c-24.20612,1.32147 -24.61379,1.65184 -26.33031,3.07764c-0.03136,0.01739 -0.05117,0.06955 -0.08252,0.08694c-2.38166,0.64335 -9.67354,0.97372 -16.45706,0.7129c-3.57497,-0.1391 -6.60527,2.74727 -6.82974,6.52042c-0.14854,2.48646 -5.36905,9.05904 -7.78867,10.27619c-6.91061,2.92115 -8.21615,11.71938 -8.34324,12.71048c-0.03961,0.31298 -0.05942,0.60857 -0.05942,0.92155c0,2.06915 0.87971,4.05136 2.42127,5.39022c0,0 0.60573,0.52163 0.95398,0.81723c-0.02146,0.38253 -0.09243,0.76506 -0.09243,1.14759c0,3.68621 1.06292,6.90296 2.38331,9.31986c-1.67855,2.78205 -2.72826,6.31177 -3.36866,9.5459c-0.04951,0.26082 -0.07427,0.52163 -0.07427,0.78245c0,1.58229 0.85496,3.21674 1.6835,4.53822c1.39137,1.46057 1.79739,1.86049 2.80254,2.62556c2.39321,1.35625 11.45607,10.72827 18.41785,18.65711c1.24942,1.4258 3.0039,2.22564 4.8442,2.22564l5.0307,0c1.8304,0 3.57662,-0.79984 4.82604,-2.20825c5.7074,-6.43348 14.10016,-13.8233 21.65611,-12.46705c4.91847,0.88678 8.51654,5.18156 10.61267,8.46786c-37.80618,40.21798 -60.30734,76.34982 -66.80368,107.4392c-1.39137,6.65953 -1.99379,12.76264 -1.99379,18.32674c0,17.87466 6.19265,30.2026 12.22025,37.99234c3.78458,4.88597 6.80168,7.58108 9.21965,9.05904c4.00244,3.58189 20.86883,12.81481 87.66261,11.77154c59.21967,-0.92155 74.88284,-15.07522 78.87703,-23.85606c3.38351,-1.54751 5.72721,-3.7036 6.98158,-6.48565c0.72622,-1.59968 0.97379,-3.09503 0.97379,-4.38172c0,-1.89527 -0.51165,-3.30368 -0.74272,-3.87748c-0.31359,-0.69551 -0.72622,-1.35625 -1.23787,-1.91266c-0.3466,-0.39992 -28.42148,-32.0631 -28.42148,-59.90096c0,-6.13789 1.36991,-12.10191 4.72041,-17.49212c0.09903,-0.15649 0.18155,-0.33037 0.28058,-0.50425c21.95155,-42.94786 28.43799,-74.21112 28.43799,-96.15452c0,-18.39629 -4.55536,-30.21999 -8.35149,-36.89691c1.03981,-0.9911 1.84855,-2.22564 2.14564,-3.68621c0.08252,-0.46947 0.13204,-0.92155 0.13204,-1.39102c0,-1.39102 -0.39612,-2.76466 -1.15534,-3.92964l-4.6874,-7.18116c-1.08933,-1.68662 -2.82234,-2.78205 -4.75342,-2.9907c0,0 -7.97188,-0.88678 -11.23985,-1.25192c-13.22044,-13.73636 -37.26812,-13.94501 -38.34094,-13.94501c-1.98059,0 -4.30779,1.59968 -5.56216,3.23413zm-92.29554,19.59605c-0.27728,0.43469 -0.53641,0.88678 -0.71301,1.37364c0.19476,-0.53902 0.44563,-0.9911 0.71301,-1.37364zm-12.44636,251.79269c0.72787,0.36514 1.38311,0.59119 1.99049,0.74768c-0.70146,-0.1391 -1.3567,-0.38253 -1.99049,-0.74768zm5.204,0.62596c-0.30369,0.10433 -0.61233,0.1391 -0.92428,0.19127c0.32515,-0.05216 0.6569,-0.08694 0.92428,-0.19127zm-2.49059,0.26082c0.23602,0.03478 0.46379,0.06955 0.67835,0.06955c-0.23107,0.01739 -0.44728,-0.05216 -0.67835,-0.06955z"/>
   <path stroke="null" id="svg_6" fill="url(#v)" d="m288.26188,48.60815c-2.52525,4.16612 -37.71375,18.20328 -37.71375,18.20328c-12.57675,-2.27259 -54.66761,1.52143 -54.66761,1.52143c-1.07942,3.02895 -20.83912,2.22738 -20.83912,2.22738c-0.35816,6.06139 -8.26732,14.78658 -11.86209,16.30106s-4.33254,7.22637 -4.33254,7.22637l3.97108,3.36976c-2.15554,6.05791 1.44418,10.97518 1.44418,10.97518l10.77937,1.14238c-0.71796,1.89353 -9.33519,3.04286 -9.33519,3.04286c-2.87681,0 -4.694,9.07469 -4.694,9.07469c3.23497,0 21.19893,20.48456 21.19893,20.48456l5.05546,0c30.55227,-34.46435 45.29116,1.90049 45.29116,1.90049c-118.63905,123.8498 -51.42935,166.22386 -51.42935,166.22386s10.78267,11.4064 83.39938,10.2588c72.62167,-1.13021 73.71099,-22.3781 73.71099,-22.3781c8.26897,-2.2778 6.50294,-6.4161 6.50294,-6.4161s-46.03223,-51.12012 -24.4603,-85.96527c49.97691,-97.70725 16.50492,-131.4361 16.50492,-131.4361l5.05051,-3.42366l-4.6874,-7.17247l-13.61656,-1.52143c-10.77772,-13.63377 -35.27102,-13.63899 -35.27102,-13.63899z"/>
   <path stroke="null" id="svg_7" d="m344.72522,291.76609s-46.01738,-51.12882 -24.44709,-85.97049c49.97196,-97.71073 16.53793,-131.41871 16.53793,-131.41871l-7.54968,3.78828l2.51766,6.81584c13.30066,62.11095 -13.30066,85.59317 -19.41309,131.41697c-6.11194,45.82554 25.88302,81.80611 25.88302,81.80611c8.26864,-2.27537 6.47307,-6.43888 6.47307,-6.43888l-0.00182,0.00087z" fill="url(#u)"/>
   <path stroke="null" id="svg_8" d="m340.07083,78.97422l-3.26236,2.21086s10.05777,10.14404 10.89259,35.4259c0.62539,-19.75775 -4.1972,-31.71186 -7.63023,-37.63763l0,0.00087z" fill="url(#t)"/>
   <path stroke="null" id="svg_9" d="m314.65325,230.43933c-1.95352,27.30058 21.07679,57.34843 28.08478,65.8076c3.00439,-2.13279 1.99214,-4.48275 1.99214,-4.48275s-27.994,-31.10503 -30.07692,-61.32502l0,0.00017z" fill="url(#s)"/>
   <path stroke="null" id="svg_10" d="m306.97846,69.06318l30.88567,-4.24506l-0.68664,-1.05787l-13.66162,-1.51463c-0.0548,-0.06955 -0.11603,-0.13406 -0.17408,-0.20545l-26.06953,5.88699l9.70638,1.13598l-0.00018,0.00005z" fill="url(#r)"/>
   <path stroke="null" id="svg_11" fill="#fff" d="m288.26188,48.60815c-2.52525,4.16612 -37.71375,18.20328 -37.71375,18.20328c-12.57675,-2.27259 -54.66761,1.52143 -54.66761,1.52143c-1.07942,3.02895 -20.83912,2.22738 -20.83912,2.22738c-0.35816,6.06139 -8.26732,14.78658 -11.86209,16.30106s-4.33254,7.22637 -4.33254,7.22637l1.96079,1.63098c0.60078,-0.8607 1.36496,-1.58577 2.37176,-2.01003c3.59477,-1.51448 11.50393,-10.24315 11.86209,-16.30106c0,0 19.7597,0.74768 20.83912,-2.28302c0,0 42.09086,-3.79228 54.66761,-1.52143c0,0 35.1885,-13.98153 37.71375,-18.14764c0,0 24.49331,0.00348 35.27102,13.63899l13.61656,1.46579l1.60098,2.50037l3.08642,-2.11957l-4.6874,-7.17247l-13.61656,-1.52143c-10.77772,-13.63377 -35.27102,-13.63899 -35.27102,-13.63899z"/>
   <path stroke="null" id="svg_12" d="m162.8162,104.29086l-0.42551,-0.36678c0.07092,0.34131 0.15152,0.66903 0.24016,0.97977c0.06125,-0.20547 0.11121,-0.40583 0.18535,-0.61299z" fill="url(#q)"/>
   <path stroke="null" id="svg_13" fill="url(#p)" d="m163.64309,114.24708c-1.64719,2.60817 -2.63088,7.44545 -2.63088,7.44545c0.40107,0 1.01505,0.31994 1.80564,0.86939c0.75428,-1.71618 1.75447,-3.09851 2.88836,-3.09851c0,0 8.61722,-1.14933 9.33519,-3.04286l-10.77937,-1.14064s-0.27068,-0.3721 -0.61893,-1.03284z"/>
   <path stroke="null" id="svg_14" d="m164.25378,108.46393l5.69767,0.6011c-1.01545,-0.74543 -1.82462,-1.19202 -2.31135,-1.19202c0,0 1.92134,-9.72291 4.99654,-9.72291c0,0 9.22922,-1.21579 9.99802,-3.23987l-11.53579,-1.21577s-3.84416,-5.26555 -1.53766,-11.74702l-0.28851,-0.24962c-2.20011,2.53688 -4.55008,4.52691 -6.09741,5.17896c-3.59428,1.51463 -4.31488,7.19629 -4.31488,7.19629l3.95541,3.40957c-2.15653,6.0586 1.43773,10.98109 1.43773,10.98109l0.00025,0.00021z" fill="url(#o)"/>
   <path stroke="null" id="svg_15" fill="url(#n)" d="m189.53602,72.40857c-3.77798,0.18257 -6.96343,8.04186 -6.96343,8.04186l-4.28138,2.98896s21.17582,4.56777 15.78366,-6.79341c-1.5168,-3.19414 -3.06166,-4.31043 -4.53885,-4.23741z"/>
   <path stroke="null" id="svg_16" fill="url(#m)" d="m176.2281,96.15334c-5.74206,0.04521 -10.96587,0.59988 -13.77006,0.97719l0.35981,0.32689c-2.15554,6.05791 1.44418,10.97518 1.44418,10.97518l10.67704,1.14238c20.36213,-0.17909 25.27234,-5.65103 25.27234,-5.65103c-3.42312,-6.41262 -14.41045,-7.84711 -23.98331,-7.77061z"/>
   <path stroke="null" id="svg_17" d="m162.44814,97.16186l0.3675,0.31754c-0.35137,0.98825 -0.53834,1.94083 -0.62377,2.85264c8.60699,-1.00863 28.4908,-2.35848 34.89471,5.5747c2.313,-1.08674 3.11729,-1.99003 3.11729,-1.99003c-5.47848,-10.2595 -30.27333,-7.7633 -37.75502,-6.75481l-0.00071,-0.00003z" fill="url(#l)"/>
   <path stroke="null" id="svg_18" d="m198.04596,90.27629s15.81997,7.19455 13.30231,20.45153c0,0 9.3469,-17.79989 -13.30231,-20.45153z" fill="url(#k)"/>
   <path stroke="null" id="svg_19" d="m238.66458,85.73808l12.94118,-5.30119s6.46977,23.86127 26.24283,4.92249l7.19186,2.27363s-10.42517,-34.84341 -30.55887,-12.12051l-15.81832,10.22559l0.00132,0z" fill="url(#j)"/>
   <path stroke="null" id="svg_20" d="m277.84727,85.35555c-18.48387,17.70599 -25.34331,-1.99351 -26.15866,-4.63385l-13.02668,8.4223l12.94118,-5.30293s6.46977,23.86127 26.24283,4.92422l7.19186,2.27189s-0.47709,-1.58425 -1.41838,-3.85627l-5.77342,-1.82537l0.00127,0z" fill="url(#i)"/>
   <path stroke="null" id="svg_21" d="m270.66763,86.12061s6.11194,-13.25472 -10.42517,-11.36153c0,0 19.41309,-7.57326 10.42517,11.36153z" fill="#fff"/>
   <path stroke="null" id="svg_22" d="m304.22214,93.89295c-2.07929,0.69619 -3.33961,2.92063 -2.93359,5.17896c2.78207,15.44697 0.53512,27.06411 -6.67608,34.52695c-16.37916,16.95658 -53.26139,9.11329 -53.6311,9.03174c-2.26464,-0.49583 -4.49693,0.97636 -5.06272,3.33672c-0.56574,2.36196 0.73336,4.77312 2.94794,5.46759c31.66305,9.93852 53.55683,7.91614 65.07562,-6.01444c15.13171,-18.29718 5.63165,-48.79885 5.51231,-49.0788c-0.9026,-2.09366 -3.14947,-3.14476 -5.2319,-2.45029l-0.0005,0.00156z" fill="url(#h)"/>
   <path stroke="null" id="svg_23" fill="url(#g)" d="m204.33764,197.6633l37.18229,90.9034c2.16215,-51.13751 -37.18229,-90.9034 -37.18229,-90.9034z"/>
   <path stroke="null" id="svg_24" fill="url(#f)" d="m238.38399,137.88406l-5.82624,6.19353c-118.63905,123.8498 -51.42935,166.22386 -51.42935,166.22386s10.46412,11.00648 80.04888,10.2588c-62.22522,-0.67812 -72.00273,-10.9717 -72.00273,-10.9717s-69.65078,-43.97374 49.20943,-171.7045z"/>
   <path stroke="null" id="svg_25" d="m325.31543,305.39812l-135.17038,5.67816l0,32.57082s-25.4572,18.00506 -25.86487,25.05582c19.49892,7.2914 51.82711,12.05948 88.41523,12.05948c44.69369,0 83.03297,-7.11144 99.39596,-17.24522c-3.83607,-4.03449 -18.96746,-19.66038 -26.77594,-23.28052l0,-34.83993l0,0.00139z" fill="url(#e)"/>
   <path stroke="null" id="svg_26" d="m193.37341,314.35284l0,26.91631c16.36793,4.7001 37.44967,7.30148 59.85676,7.30148c26.78749,0 52.16712,-3.858 68.84369,-10.31722l0,-29.31061c-6.24744,0.26489 -122.92043,5.16539 -128.70045,5.40987l0,0.00017z" fill="url(#d)"/>
   <path stroke="null" id="svg_27" d="m190.13845,324.10739c16.20998,4.37407 37.46453,7.03319 60.75463,7.03319c30.59188,0 57.68306,-4.58134 74.4174,-11.62131l0,-14.13106l-135.17038,5.67816l0,13.04085l-0.00165,0.00017z" fill="url(#c)"/>
   <path stroke="null" id="svg_28" d="m190.49661,348.95455s-16.53958,10.60586 -17.97716,16.28402c0,0 37.0288,16.2875 117.55798,4.54743l-99.58081,-20.83058l0,-0.00087z" fill="url(#b)"/>
  </g>
 </g>
</svg>