<svg width="500" height="552" xmlns="http://www.w3.org/2000/svg">
 <defs>
  <linearGradient y2="0.5967" y1="0.16759" x2="0.56097" x1="0.29042" id="d">
   <stop stop-color="#a47ede" offset="0"/>
   <stop stop-color="#9866d3" offset="1"/>
  </linearGradient>
  <linearGradient y2="0.90783" y1="0.30276" x2="0.82582" x1="0.34243" id="b">
   <stop stop-color="#3b009b" offset="0"/>
   <stop stop-color="#390086" offset="1"/>
  </linearGradient>
  <linearGradient y2="0.89003" y1="0.35646" x2="0.5436" x1="0.27925" id="c">
   <stop stop-color="#340084" offset="0"/>
   <stop stop-color="#290064" offset="1"/>
  </linearGradient>
 </defs>
 <clipPath id="a">
  <path id="svg_1" d="m435.279,113.284l-188.088,-108.592c-10.835,-6.257 -28.567,-6.257 -39.402,0l-188.088,108.592c-10.836,6.255 -19.701,21.612 -19.701,34.124l0,217.185c0.843,14.571 8.286,26.639 19.701,34.123l188.088,108.592c10.835,6.257 28.567,6.257 39.402,0l188.088,-108.592c12.248,-8.146 19.219,-20.408 19.701,-34.123l0,-217.185c-0.44,-13.165 -8.323,-26.443 -19.701,-34.124z"/>
 </clipPath>
 <g>
  <title>Layer 1</title>
  <g id="svg_2" clip-path="url(#a)">
   <path id="svg_3" d="m192.37463,100.88012l267.464,0l0,273.493l-267.464,0l0,-273.493z" fill="url(#b)"/>
   <path id="svg_4" d="m459.83863,384.19512l-344.207,-199.172l-175.756,0l0,329.723l519.963,0l0,-130.551z" fill="url(#c)"/>
   <path id="svg_5" d="m-60.12437,381.48612l519.963,-300.885l0,-118.721l-519.963,0l0,419.606z" fill="url(#d)"/>
  </g>
  <path id="svg_6" d="m75.83,256.001c-0.891,-148.089 197.459,-213.479 282.996,-75.878l-65.635,37.98c-39.622,-65.534 -138.001,-42.101 -141.532,37.897c1.06,73.729 97.754,107.978 141.536,37.893l65.635,37.979c-75.382,130.863 -279.198,83.781 -283,-75.871zm250.17,-43.001l12.5,0l-8.541,82.5l-12.735,0l8.776,-82.5zm26.776,0l12.5,0l-8.541,82.5l-12.735,0l8.776,-82.5zm-40.776,19.592l62.5,0l0,12.072l-62.5,0l0,-12.072zm-3.5,29.408l62.5,0l0,12.072l-62.5,0l0,-12.072z"/>
 </g>
</svg>