<?xml version="1.0" encoding="UTF-8" standalone="no"?>
<svg
   xmlns:dc="http://purl.org/dc/elements/1.1/"
   xmlns:cc="http://creativecommons.org/ns#"
   xmlns:rdf="http://www.w3.org/1999/02/22-rdf-syntax-ns#"
   xmlns:svg="http://www.w3.org/2000/svg"
   xmlns="http://www.w3.org/2000/svg"
   xmlns:sodipodi="http://sodipodi.sourceforge.net/DTD/sodipodi-0.dtd"
   xmlns:inkscape="http://www.inkscape.org/namespaces/inkscape"
   height="500"
   version="1.1"
   viewBox="0 0 520.78738 681.15065"
   width="500"
   xml:space="preserve"
   id="svg1161"
   sodipodi:docname="docker.svg"
   inkscape:version="1.0.2 (e86c870879, 2021-01-15, custom)"><metadata
     id="metadata1167"><rdf:RDF><cc:Work
         rdf:about=""><dc:format>image/svg+xml</dc:format><dc:type
           rdf:resource="http://purl.org/dc/dcmitype/StillImage" /><dc:title></dc:title></cc:Work></rdf:RDF></metadata><defs
     id="defs1165" /><sodipodi:namedview
     pagecolor="#ffffff"
     bordercolor="#666666"
     borderopacity="1"
     objecttolerance="10"
     gridtolerance="10"
     guidetolerance="10"
     inkscape:pageopacity="0"
     inkscape:pageshadow="2"
     inkscape:window-width="1565"
     inkscape:window-height="1217"
     id="namedview1163"
     showgrid="false"
     inkscape:zoom="1.6248566"
     inkscape:cx="240.02118"
     inkscape:cy="183.513"
     inkscape:window-x="3045"
     inkscape:window-y="-432"
     inkscape:window-maximized="0"
     inkscape:current-layer="svg1161" /><g
     id="comp_x5F_97-docker"
     transform="matrix(1.3530328,0,0,1.399624,-87.222589,-13.501738)"><g
       id="g1157"><g
         id="g1155"><g
           id="g1081"><path
             d="m 476.441,231.582 c -10.35,-6.972 -34.21,-9.487 -52.537,-6.036 -2.371,-17.249 -12.003,-32.27 -29.538,-45.782 l -10.062,-6.685 -6.685,10.062 c -13.225,19.98 -16.817,57.641 -2.658,79.346 -6.252,3.377 -18.545,7.978 -34.786,7.688 H 27.757 c -6.252,36.512 4.17,79.201 31.624,111.758 26.662,31.551 66.622,47.579 118.872,47.579 113.123,0 196.851,-52.104 236.021,-146.76 15.381,0.288 48.584,0.073 65.618,-32.483 1.078,-1.797 4.743,-9.488 6.107,-12.291 z"
             style="fill:#099cec"
             id="path1075" /><g
             id="g1079"><path
               d="m 178.253,439.513 c -55.278,0 -97.843,-17.201 -126.51,-51.125 C 23.44,354.825 10.791,310.006 17.9,268.488 c 0.822,-4.802 4.985,-8.313 9.856,-8.313 h 312.419 c 0.06,0 0.118,10e-4 0.178,0.002 8.499,0.155 15.599,-1.245 20.793,-2.825 -10.162,-25.68 -4.948,-59.965 8.135,-79.73 l 6.694,-10.076 c 1.467,-2.209 3.752,-3.745 6.353,-4.269 2.597,-0.525 5.302,0.006 7.511,1.473 l 10.062,6.685 c 0.194,0.129 0.385,0.265 0.569,0.408 16.404,12.64 26.712,26.641 31.285,42.569 3.134,-0.267 6.361,-0.401 9.662,-0.401 16.805,0 31.987,3.468 40.611,9.278 l 9.532,6.38 c 4.152,2.778 5.616,8.195 3.43,12.687 l -0.958,1.981 c -2.782,5.762 -4.428,9.108 -5.394,10.785 -12.842,24.362 -35.634,37.021 -67.775,37.65 -41.856,94.703 -127.741,146.741 -242.61,146.741 z M 36.516,280.176 c -3.102,33.054 8.217,68.875 30.51,95.312 24.685,29.21 62.109,44.025 111.228,44.025 108.727,0 189.266,-49.927 226.78,-140.583 1.549,-3.744 5.2,-6.177 9.239,-6.177 0.063,0 0.125,0.001 0.188,0.002 1.183,0.021 2.476,0.041 3.862,0.041 16.526,0 39.97,-2.815 52.708,-27.162 0.09,-0.172 0.186,-0.342 0.285,-0.509 0.313,-0.532 1.053,-2 1.882,-3.681 l -2.318,-1.552 c -4.359,-2.937 -15.143,-5.882 -29.463,-5.882 -5.511,0 -10.927,0.471 -15.662,1.363 -2.693,0.507 -5.472,-0.112 -7.693,-1.712 -2.223,-1.6 -3.691,-4.041 -4.064,-6.753 -1.994,-14.509 -10.324,-27.272 -25.463,-39.012 l -1.434,-0.953 -1.151,1.732 c -10.987,16.6 -14.528,50.082 -2.612,68.348 1.528,2.342 2.006,5.216 1.317,7.926 -0.689,2.71 -2.479,5.008 -4.939,6.337 -4.956,2.677 -18.587,8.902 -38.082,8.902 -0.512,0 -1.024,-0.004 -1.543,-0.013 H 36.516 Z"
               style="fill:#0775b1"
               id="path1077" /></g></g><g
           id="g1089"><rect
             height="50"
             style="fill:#099cec"
             width="50"
             x="270"
             y="182.487"
             id="rect1083" /><g
             id="g1087"><path
               d="m 320,242.487 h -50 c -5.522,0 -10,-4.477 -10,-10 v -50 c 0,-5.523 4.478,-10 10,-10 h 50 c 5.522,0 10,4.477 10,10 v 50 c 0,5.523 -4.478,10 -10,10 z m -40,-20 h 30 v -30 h -30 z"
               style="fill:#0775b1"
               id="path1085" /></g></g><g
           id="g1097"><rect
             height="50"
             style="fill:#099cec"
             width="50"
             x="220"
             y="182.487"
             id="rect1091" /><g
             id="g1095"><path
               d="m 270,242.487 h -50 c -5.523,0 -10,-4.477 -10,-10 v -50 c 0,-5.523 4.477,-10 10,-10 h 50 c 5.522,0 10,4.477 10,10 v 50 c 0,5.523 -4.478,10 -10,10 z m -40,-20 h 30 v -30 h -30 z"
               style="fill:#0775b1"
               id="path1093" /></g></g><g
           id="g1105"><rect
             height="50"
             style="fill:#099cec"
             width="50"
             x="170"
             y="182.487"
             id="rect1099" /><g
             id="g1103"><path
               d="m 220,242.487 h -50 c -5.523,0 -10,-4.477 -10,-10 v -50 c 0,-5.523 4.477,-10 10,-10 h 50 c 5.523,0 10,4.477 10,10 v 50 c 0,5.523 -4.477,10 -10,10 z m -40,-20 h 30 v -30 h -30 z"
               style="fill:#0775b1"
               id="path1101" /></g></g><g
           id="g1113"><rect
             height="50"
             style="fill:#099cec"
             width="50"
             x="220"
             y="132.487"
             id="rect1107" /><g
             id="g1111"><path
               d="m 270,192.487 h -50 c -5.523,0 -10,-4.477 -10,-10 v -50 c 0,-5.523 4.477,-10 10,-10 h 50 c 5.522,0 10,4.477 10,10 v 50 c 0,5.523 -4.478,10 -10,10 z m -40,-20 h 30 v -30 h -30 z"
               style="fill:#0775b1"
               id="path1109" /></g></g><g
           id="g1121"><rect
             height="50"
             style="fill:#099cec"
             width="50"
             x="220"
             y="82.487"
             id="rect1115" /><g
             id="g1119"><path
               d="m 270,142.487 h -50 c -5.523,0 -10,-4.477 -10,-10 v -50 c 0,-5.523 4.477,-10 10,-10 h 50 c 5.522,0 10,4.477 10,10 v 50 c 0,5.523 -4.478,10 -10,10 z m -40,-20 h 30 v -30 h -30 z"
               style="fill:#0775b1"
               id="path1117" /></g></g><g
           id="g1129"><rect
             height="50"
             style="fill:#099cec"
             width="50"
             x="170"
             y="132.487"
             id="rect1123" /><g
             id="g1127"><path
               d="m 220,192.487 h -50 c -5.523,0 -10,-4.477 -10,-10 v -50 c 0,-5.523 4.477,-10 10,-10 h 50 c 5.523,0 10,4.477 10,10 v 50 c 0,5.523 -4.477,10 -10,10 z m -40,-20 h 30 v -30 h -30 z"
               style="fill:#0775b1"
               id="path1125" /></g></g><g
           id="g1137"><rect
             height="50"
             style="fill:#099cec"
             width="50"
             x="120"
             y="132.487"
             id="rect1131" /><g
             id="g1135"><path
               d="m 170,192.487 h -50 c -5.523,0 -10,-4.477 -10,-10 v -50 c 0,-5.523 4.477,-10 10,-10 h 50 c 5.523,0 10,4.477 10,10 v 50 c 0,5.523 -4.477,10 -10,10 z m -40,-20 h 30 v -30 h -30 z"
               style="fill:#0775b1"
               id="path1133" /></g></g><g
           id="g1145"><rect
             height="50"
             style="fill:#099cec"
             width="50"
             x="120"
             y="182.487"
             id="rect1139" /><g
             id="g1143"><path
               d="m 170,242.487 h -50 c -5.523,0 -10,-4.477 -10,-10 v -50 c 0,-5.523 4.477,-10 10,-10 h 50 c 5.523,0 10,4.477 10,10 v 50 c 0,5.523 -4.477,10 -10,10 z m -40,-20 h 30 v -30 h -30 z"
               style="fill:#0775b1"
               id="path1141" /></g></g><g
           id="g1153"><rect
             height="50"
             style="fill:#099cec"
             width="50"
             x="70"
             y="182.487"
             id="rect1147" /><g
             id="g1151"><path
               d="M 120,242.487 H 70 c -5.523,0 -10,-4.477 -10,-10 v -50 c 0,-5.523 4.477,-10 10,-10 h 50 c 5.523,0 10,4.477 10,10 v 50 c 0,5.523 -4.477,10 -10,10 z m -40,-20 h 30 v -30 H 80 Z"
               style="fill:#0775b1"
               id="path1149" /></g></g></g></g></g><g
     id="Layer_1"
     transform="translate(-15.957026,-72.487)" /></svg>
