<svg width="499.99999999999994" height="499.99999999999994" xmlns="http://www.w3.org/2000/svg">

 <g>
  <title>background</title>
  <rect fill="none" id="canvas_background" height="502" width="502" y="-1" x="-1"/>
 </g>
 <g>
  <title>Layer 1</title>
  <path stroke="null" id="svg_4" d="m474.3671,225.12664l-199.5111,-198.61947c-11.47936,-11.43984 -30.11296,-11.43984 -41.60676,0l-41.42628,41.25019l52.54788,52.31946c12.21612,-4.10665 26.21819,-1.35323 35.9513,8.33949c9.78364,9.75309 12.52935,23.8133 8.3013,36.01705l50.64682,50.42666c12.25302,-4.20409 26.39025,-1.48796 36.1743,8.2708c13.67881,13.61536 13.67881,35.67762 0,49.29657c-13.68082,13.62334 -35.8394,13.62334 -49.52784,0c-10.28538,-10.24866 -12.82935,-25.29519 -7.61988,-37.91264l-47.23374,-47.02841l-0.00401,123.75456c3.33488,1.6437 6.48206,3.83751 9.26105,6.59244c13.6748,13.61376 13.6748,35.67203 0,49.30855c-13.67881,13.61336 -35.84743,13.61336 -49.5118,0c-13.67681,-13.63532 -13.67681,-35.69359 0,-49.30855c3.38,-3.35931 7.29101,-5.90201 11.46412,-7.60633l0,-124.90462c-4.17511,-1.69713 -8.08151,-4.22086 -11.46652,-7.60713c-10.35958,-10.30656 -12.85462,-25.44494 -7.54168,-38.1111l-51.8019,-51.5847l-136.78813,136.18952c-11.4934,11.44862 -11.4934,30.00123 0,41.44187l199.49906,198.61987c11.48578,11.43984 30.11296,11.43984 41.61478,0l198.57661,-197.68145c11.48979,-11.44543 11.48979,-30.00362 0,-41.44586" fill="#f05133"/>
 </g>
</svg>