<svg width="500" height="550" xmlns="http://www.w3.org/2000/svg">

 <g>
  <title>background</title>
  <rect fill="none" id="canvas_background" height="552" width="502" y="-1" x="-1"/>
 </g>
 <g>
  <title>Layer 1</title>
  <g stroke="null" id="svg_14">
   <path stroke="null" id="svg_1" fill="#5382A1" d="m368.57836,414.99612l-1.79273,0l0,-1.01987l4.82578,0l0,1.01987l-1.78042,0l0,5.08861l-1.25263,0l0,-5.08861zm9.62517,0.2657l-0.02815,0l-1.77602,4.8238l-0.8128,0l-1.76459,-4.8238l-0.02199,0l0,4.8238l-1.1805,0l0,-6.10847l1.73732,0l1.63616,4.32549l1.63088,-4.32549l1.73116,0l0,6.10847l-1.15235,0l0,-4.8238l0.00088,0z"/>
   <path stroke="null" id="svg_2" fill="#5382A1" d="m208.10925,290.08821c0,0 -12.47173,7.37615 8.87571,9.87215c25.86183,3.00056 39.07951,2.57025 67.57942,-2.91557c0,0 7.49289,4.77817 17.95726,8.91669c-63.88927,27.84777 -144.594,-1.613 -94.41238,-15.87326"/>
   <path stroke="null" id="svg_3" fill="#5382A1" d="m200.30232,253.74869c0,0 -13.98826,10.53059 7.37502,12.77788c27.62641,2.89857 49.44359,3.13565 87.1957,-4.2575c0,0 5.22163,5.38383 13.43232,8.32803c-77.24593,22.97208 -163.28401,1.81161 -108.00303,-16.8484"/>
   <path stroke="null" id="svg_4" fill="#F8981D" d="m266.11715,192.10482c15.74229,18.43278 -4.13613,35.01995 -4.13613,35.01995s39.97236,-20.98603 21.61486,-47.26552c-17.14534,-24.50725 -30.29352,-36.68394 40.88544,-78.66762c0,0 -111.72749,28.37918 -58.36416,90.9132"/>
   <path stroke="null" id="svg_5" fill="#5382A1" d="m350.61583,316.9671c0,0 9.22933,7.734 -10.1644,13.71723c-36.87773,11.36169 -153.48906,14.79256 -185.8832,0.45268c-11.64486,-5.15212 10.19255,-12.30194 17.06177,-13.80222c7.1639,-1.5799 11.25781,-1.28557 11.25781,-1.28557c-12.95027,-9.27812 -83.70523,18.21807 -35.94002,26.09252c130.26268,21.48433 237.45643,-9.67443 203.66804,-25.17464"/>
   <path stroke="null" id="svg_6" fill="#5382A1" d="m214.10673,216.09677c0,0 -59.31595,14.32825 -21.00526,19.53137c16.17596,2.20256 48.42231,1.70425 78.45898,-0.85526c24.54762,-2.10594 49.19641,-6.58352 49.19641,-6.58352s-8.65579,3.76993 -14.91805,8.11869c-60.23431,16.11123 -176.59581,8.6161 -143.09683,-7.86372c28.33014,-13.92746 51.36475,-12.34756 51.36475,-12.34756"/>
   <path stroke="null" id="svg_7" fill="#5382A1" d="m320.51231,276.58569c61.23095,-32.35935 32.92017,-63.45638 13.15962,-59.26687c-4.84337,1.02524 -7.00293,1.91359 -7.00293,1.91359s1.79801,-2.86458 5.23218,-4.10452c39.0927,-13.97756 69.15751,41.22504 -12.61952,63.08869c0,0.00089 0.94739,-0.86063 1.23064,-1.63089"/>
   <path stroke="null" id="svg_8" fill="#F8981D" d="m283.59587,33.39901c0,0 33.91066,34.49928 -32.16279,87.54942c-52.9842,42.55534 -12.08205,66.81926 -0.02199,94.54178c-30.92775,-28.37918 -53.62459,-53.36147 -38.39778,-76.61268c22.34937,-34.1307 84.26469,-50.6785 70.58255,-105.47853"/>
   <path stroke="null" id="svg_9" fill="#5382A1" d="m220.12356,364.27199c58.77408,3.8263 149.02834,-2.12294 151.16589,-30.40639c0,0 -4.10886,10.72204 -48.57361,19.23704c-50.16491,9.60108 -112.03625,8.48011 -148.73277,2.32691c0.00088,-0.00089 7.51224,6.32318 46.14049,8.84244"/>
   <path stroke="null" id="svg_10" fill="#5382A1" d="m210.49135,472.34403c-5.54446,4.89089 -11.40032,7.63649 -16.65537,7.63649c-7.50081,0 -11.55338,-4.5742 -11.55338,-11.91099c0,-7.93619 4.34197,-13.7387 21.76176,-13.7387l6.4461,0l0,18.0132m15.29982,17.55515l0,-54.34108c0,-13.88184 -7.78494,-23.04186 -26.55499,-23.04186c-10.95785,0 -20.55663,2.75185 -28.35828,6.26145l2.25191,9.61897c6.14262,-2.29291 14.09382,-4.42748 21.89811,-4.42748c10.81271,0 15.46432,4.42748 15.46432,13.58125l0,6.86801l-5.39668,0c-26.27087,0 -38.12156,10.37134 -38.12156,25.93865c0,13.43453 7.80957,21.07101 22.51386,21.07101c9.45188,0 16.50759,-3.96854 23.10323,-9.77642l1.19721,8.24841l12.00288,0l0,-0.00089z"/>
   <path stroke="null" id="svg_11" fill="#5382A1" d="m276.84893,489.89918l-19.08145,0l-22.96425,-76.00702l16.66329,0l14.24951,46.69923l3.16763,14.04466c7.20876,-20.30611 12.30724,-40.90745 14.85736,-60.74389l16.20938,0c-4.34285,25.02882 -12.1577,52.50085 -23.10147,76.00702"/>
   <path stroke="null" id="svg_12" fill="#5382A1" d="m350.04757,472.34403c-5.55501,4.89089 -11.42143,7.63649 -16.67648,7.63649c-7.48761,0 -11.55074,-4.5742 -11.55074,-11.91099c0,-7.93619 4.35253,-13.7387 21.77056,-13.7387l6.45666,0l0,18.0132m15.29718,17.55515l0,-54.34108c0,-13.88184 -7.80429,-23.04186 -26.55235,-23.04186c-10.96577,0 -20.56807,2.75185 -28.3662,6.26145l2.2484,9.61897c6.14526,-2.29291 14.11141,-4.42748 21.90954,-4.42748c10.80479,0 15.46344,4.42748 15.46344,13.58125l0,6.86801l-5.40547,0c-26.27878,0 -38.1242,10.37134 -38.1242,25.93865c0,13.43453 7.80341,21.07101 22.50507,21.07101c9.45716,0 16.51023,-3.96854 23.11731,-9.77642l1.20161,8.24841l12.00288,0l0,-0.00089z"/>
   <path stroke="null" id="svg_13" fill="#5382A1" d="m150.19811,502.80678c-4.36132,6.47616 -11.40559,11.59966 -19.11752,14.49823l-7.55359,-9.04015c5.86993,-3.06318 10.90419,-8.01044 13.24319,-12.61863c2.0232,-4.09826 2.86063,-9.3801 2.86063,-22.01126l0,-86.77379l16.25425,0l0,85.58484c-0.00088,16.88687 -1.32828,23.70836 -5.68696,30.36076"/>
  </g>
 </g>
</svg>