<svg width="500" height="500" xmlns="http://www.w3.org/2000/svg">
 <defs>
  <style>.cls-1{fill:#ffc61c;}</style>
 </defs>
 <title>sub-project-brand-logo-variants</title>
 <g>
  <title>background</title>
  <rect fill="none" id="canvas_background" height="502" width="502" y="-1" x="-1"/>
 </g>
 <g>
  <title>Layer 1</title>
  <path stroke="null" id="svg_1" d="m422.09235,40l-328.92852,0a44.29375,54.19299 0 0 0 -44.16391,54.03384l0,310.02144a44.29375,54.19299 0 0 0 44.16391,54.03381l328.92852,0a44.29375,54.19299 0 0 0 44.16391,-54.03381l0,-310.02144a44.29375,54.19299 0 0 0 -44.16391,-54.03384zm-196.78079,304.02664l-80.27399,57.07598a21.47946,26.27992 0 1 1 -21.58456,-45.44369l80.27399,-57.07598a21.47946,26.27992 0 1 1 21.58456,45.44369zm31.57974,-86.95815l-0.09649,0a21.47873,26.27903 0 0 1 -21.38529,-26.3944l0.40274,-113.14464a21.48142,26.28231 0 0 1 21.47753,-26.16597l0.09651,0a21.47933,26.27976 0 0 1 21.38517,26.39437l-0.40274,113.14467a21.48139,26.28228 0 0 1 -21.47742,26.16597zm142.03436,134.44213a21.47038,26.2688 0 0 1 -29.34158,9.61894l-80.39147,-56.78727a21.47948,26.27994 0 0 1 21.47968,-45.51809l80.39147,56.78727a21.47832,26.27853 0 0 1 7.86191,35.8991l0,0.00005z" class="cls-1"/>
 </g>
</svg>