<?xml version="1.0" encoding="UTF-8" standalone="no"?>
<svg
   xmlns:dc="http://purl.org/dc/elements/1.1/"
   xmlns:cc="http://creativecommons.org/ns#"
   xmlns:rdf="http://www.w3.org/1999/02/22-rdf-syntax-ns#"
   xmlns:svg="http://www.w3.org/2000/svg"
   xmlns="http://www.w3.org/2000/svg"
   xmlns:sodipodi="http://sodipodi.sourceforge.net/DTD/sodipodi-0.dtd"
   xmlns:inkscape="http://www.inkscape.org/namespaces/inkscape"
   version="1.1"
   width="600px"
   height="600px"
   viewBox="0 0 200 200"
   style="overflow:hidden!important;"
   id="svg1235"
   sodipodi:docname="moi_white.svg"
   inkscape:version="1.0.2 (e86c870879, 2021-01-15, custom)">
  <metadata
     id="metadata1239">
    <rdf:RDF>
      <cc:Work
         rdf:about="">
        <dc:format>image/svg+xml</dc:format>
        <dc:type
           rdf:resource="http://purl.org/dc/dcmitype/StillImage" />
        <dc:title></dc:title>
      </cc:Work>
    </rdf:RDF>
  </metadata>
  <sodipodi:namedview
     pagecolor="#ffffff"
     bordercolor="#666666"
     borderopacity="1"
     objecttolerance="10"
     gridtolerance="10"
     guidetolerance="10"
     inkscape:pageopacity="0"
     inkscape:pageshadow="2"
     inkscape:window-width="1600"
     inkscape:window-height="834"
     id="namedview1237"
     showgrid="false"
     inkscape:zoom="1.11"
     inkscape:cx="300"
     inkscape:cy="300"
     inkscape:window-x="-8"
     inkscape:window-y="-8"
     inkscape:window-maximized="1"
     inkscape:current-layer="svga-group-wrapper" />
  <defs
     id="SvgjsDefs1007">
    <radialGradient
       id="SvgjsRadialGradient2904"
       cx="100"
       cy="114"
       r="41"
       gradientUnits="userSpaceOnUse"
       class="svga-on-canvas-facehighlight-gradient-single-0">
      <stop
         id="SvgjsStop2905"
         stop-opacity="0.5"
         stop-color="#ffe4d6"
         offset="0" />
      <stop
         id="SvgjsStop2906"
         stop-opacity="0"
         stop-color="#f0c7b1"
         offset="0.9" />
    </radialGradient>
    <radialGradient
       id="SvgjsRadialGradient2908"
       cx="100"
       cy="54"
       r="37"
       gradientUnits="userSpaceOnUse"
       class="svga-on-canvas-facehighlight-gradient-single-1">
      <stop
         id="SvgjsStop2909"
         stop-opacity="0.5"
         stop-color="#ffe4d6"
         offset="0" />
      <stop
         id="SvgjsStop2910"
         stop-opacity="0"
         stop-color="#f0c7b1"
         offset="0.9" />
    </radialGradient>
    <radialGradient
       id="SvgjsRadialGradient3200"
       cx="-568.659"
       cy="-521.042"
       r="59.751"
       gradientTransform="matrix(0.096 -0.0248 0.0245 0.0961 141.2814 119.9893)"
       gradientUnits="userSpaceOnUse"
       class="svga-on-canvas-eyesiris-gradient-left-1">
      <stop
         id="SvgjsStop3201"
         stop-opacity="1"
         stop-color="#ffffff"
         offset="0" />
      <stop
         id="SvgjsStop3202"
         stop-opacity="0"
         stop-color="#ffffff"
         offset="1" />
    </radialGradient>
    <radialGradient
       id="SvgjsRadialGradient3204"
       cx="-582.838"
       cy="-519.099"
       r="59.745"
       gradientTransform="matrix(0.0991 8.856319e-004 -0.0011 0.0991 131.1134 135.9855)"
       gradientUnits="userSpaceOnUse"
       class="svga-on-canvas-eyesiris-gradient-left-2">
      <stop
         id="SvgjsStop3205"
         stop-opacity="1"
         stop-color="#ffffff"
         offset="0" />
      <stop
         id="SvgjsStop3206"
         stop-opacity="0"
         stop-color="#ffffff"
         offset="1" />
    </radialGradient>
    <linearGradient
       id="SvgjsLinearGradient3210"
       x1="122.67"
       y1="88.268"
       x2="123.606"
       y2="87.152"
       gradientTransform="matrix(1 0 0 1 -52 0)"
       gradientUnits="userSpaceOnUse"
       class="svga-on-canvas-eyesiris-gradient-left-5">
      <stop
         id="SvgjsStop3211"
         stop-opacity="1"
         stop-color="#ffffff"
         offset="0" />
      <stop
         id="SvgjsStop3212"
         stop-opacity="0"
         stop-color="#ffffff"
         offset="1" />
    </linearGradient>
    <linearGradient
       id="SvgjsLinearGradient3214"
       x1="127.212"
       y1="82.296"
       x2="126.463"
       y2="83.189"
       gradientTransform="matrix(1 0 0 1 -52 0)"
       gradientUnits="userSpaceOnUse"
       class="svga-on-canvas-eyesiris-gradient-left-6">
      <stop
         id="SvgjsStop3215"
         stop-opacity="1"
         stop-color="#ffffff"
         offset="0" />
      <stop
         id="SvgjsStop3216"
         stop-opacity="0"
         stop-color="#ffffff"
         offset="1" />
    </linearGradient>
    <linearGradient
       id="SvgjsLinearGradient3218"
       x1="129.636"
       y1="79.822"
       x2="127.91"
       y2="81.879"
       gradientTransform="matrix(1 0 0 1 -52 0)"
       gradientUnits="userSpaceOnUse"
       class="svga-on-canvas-eyesiris-gradient-left-7">
      <stop
         id="SvgjsStop3219"
         stop-opacity="1"
         stop-color="#ffffff"
         offset="0" />
      <stop
         id="SvgjsStop3220"
         stop-opacity="0"
         stop-color="#ffffff"
         offset="1" />
    </linearGradient>
    <radialGradient
       id="SvgjsRadialGradient3223"
       cx="-568.654"
       cy="-521.042"
       r="59.752"
       gradientTransform="matrix(0.096 -0.0248 0.0245 0.0961 193.2804 119.9894)"
       gradientUnits="userSpaceOnUse"
       class="svga-on-canvas-eyesiris-gradient-right-1">
      <stop
         id="SvgjsStop3224"
         stop-opacity="1"
         stop-color="#ffffff"
         offset="0" />
      <stop
         id="SvgjsStop3225"
         stop-opacity="0"
         stop-color="#ffffff"
         offset="1" />
    </radialGradient>
    <radialGradient
       id="SvgjsRadialGradient3227"
       cx="-582.833"
       cy="-519.102"
       r="59.747"
       gradientTransform="matrix(0.0991 8.856319e-004 -0.0011 0.0991 183.1126 135.9856)"
       gradientUnits="userSpaceOnUse"
       class="svga-on-canvas-eyesiris-gradient-right-2">
      <stop
         id="SvgjsStop3228"
         stop-opacity="1"
         stop-color="#ffffff"
         offset="0" />
      <stop
         id="SvgjsStop3229"
         stop-opacity="0"
         stop-color="#ffffff"
         offset="1" />
    </radialGradient>
    <linearGradient
       id="SvgjsLinearGradient3233"
       x1="122.67"
       y1="88.268"
       x2="123.606"
       y2="87.152"
       gradientUnits="userSpaceOnUse"
       class="svga-on-canvas-eyesiris-gradient-right-5">
      <stop
         id="SvgjsStop3234"
         stop-opacity="1"
         stop-color="#ffffff"
         offset="0" />
      <stop
         id="SvgjsStop3235"
         stop-opacity="0"
         stop-color="#ffffff"
         offset="1" />
    </linearGradient>
    <linearGradient
       id="SvgjsLinearGradient3237"
       x1="127.212"
       y1="82.296"
       x2="126.463"
       y2="83.189"
       gradientUnits="userSpaceOnUse"
       class="svga-on-canvas-eyesiris-gradient-right-6">
      <stop
         id="SvgjsStop3238"
         stop-opacity="1"
         stop-color="#ffffff"
         offset="0" />
      <stop
         id="SvgjsStop3239"
         stop-opacity="0"
         stop-color="#ffffff"
         offset="1" />
    </linearGradient>
    <linearGradient
       id="SvgjsLinearGradient3241"
       x1="129.636"
       y1="79.822"
       x2="127.91"
       y2="81.879"
       gradientUnits="userSpaceOnUse"
       class="svga-on-canvas-eyesiris-gradient-right-7">
      <stop
         id="SvgjsStop3242"
         stop-opacity="1"
         stop-color="#ffffff"
         offset="0" />
      <stop
         id="SvgjsStop3243"
         stop-opacity="0"
         stop-color="#ffffff"
         offset="1" />
    </linearGradient>
    <linearGradient
       id="SvgjsLinearGradient3471"
       x1="100"
       y1="171"
       x2="100"
       y2="127"
       gradientUnits="userSpaceOnUse"
       class="svga-on-canvas-chinshadow-gradient-single-0">
      <stop
         id="SvgjsStop3472"
         stop-opacity="0.8"
         stop-color="#e1ac8f"
         offset="0" />
      <stop
         id="SvgjsStop3473"
         stop-opacity="1"
         stop-color="#c27b55"
         offset="0.7" />
    </linearGradient>
    <linearGradient
       id="SvgjsLinearGradient3583"
       x1="100"
       y1="142"
       x2="100"
       y2="139"
       gradientUnits="userSpaceOnUse"
       class="svga-on-canvas-mouth-gradient-single-0">
      <stop
         id="SvgjsStop3584"
         stop-opacity="1"
         stop-color="#e8b9a0"
         offset="0.1" />
      <stop
         id="SvgjsStop3585"
         stop-opacity="1"
         stop-color="#e1ac8f"
         offset="1" />
    </linearGradient>
    <radialGradient
       id="SvgjsRadialGradient3594"
       cx="126.289"
       cy="84.919"
       r="10.712"
       gradientTransform="matrix(-1 0 0 1 200 0)"
       gradientUnits="userSpaceOnUse"
       class="svga-on-canvas-eyesback-gradient-left-0">
      <stop
         id="SvgjsStop3595"
         stop-opacity="1"
         stop-color="#ffffff"
         offset="0" />
      <stop
         id="SvgjsStop3596"
         stop-opacity="1"
         stop-color="#fdfefe"
         offset="0.544" />
      <stop
         id="SvgjsStop3597"
         stop-opacity="1"
         stop-color="#f6f8f9"
         offset="0.74" />
      <stop
         id="SvgjsStop3598"
         stop-opacity="1"
         stop-color="#eaeff2"
         offset="0.879" />
      <stop
         id="SvgjsStop3599"
         stop-opacity="1"
         stop-color="#d9e3e8"
         offset="0.992" />
      <stop
         id="SvgjsStop3600"
         stop-opacity="1"
         stop-color="#d8e2e7"
         offset="1" />
    </radialGradient>
    <radialGradient
       id="SvgjsRadialGradient3602"
       cx="125.89"
       cy="84.919"
       r="10.712"
       gradientUnits="userSpaceOnUse"
       class="svga-on-canvas-eyesback-gradient-right-0">
      <stop
         id="SvgjsStop3603"
         stop-opacity="1"
         stop-color="#ffffff"
         offset="0" />
      <stop
         id="SvgjsStop3604"
         stop-opacity="1"
         stop-color="#fdfefe"
         offset="0.544" />
      <stop
         id="SvgjsStop3605"
         stop-opacity="1"
         stop-color="#f6f8f9"
         offset="0.74" />
      <stop
         id="SvgjsStop3606"
         stop-opacity="1"
         stop-color="#eaeff2"
         offset="0.879" />
      <stop
         id="SvgjsStop3607"
         stop-opacity="1"
         stop-color="#d9e3e8"
         offset="0.992" />
      <stop
         id="SvgjsStop3608"
         stop-opacity="1"
         stop-color="#d8e2e7"
         offset="1" />
    </radialGradient>
    <radialGradient
       id="SvgjsRadialGradient3610"
       cx="126.289"
       cy="84.919"
       r="10.712"
       gradientTransform="matrix(-1 0 0 1 200 0)"
       class="svga-on-canvas-eyesfront-gradient-left-0">
      <stop
         id="SvgjsStop3611"
         stop-opacity="1"
         stop-color="#ffffff"
         offset="0" />
      <stop
         id="SvgjsStop3612"
         stop-opacity="1"
         stop-color="#fdfefe"
         offset="0.544" />
      <stop
         id="SvgjsStop3613"
         stop-opacity="1"
         stop-color="#f6f8f9"
         offset="0.74" />
      <stop
         id="SvgjsStop3614"
         stop-opacity="1"
         stop-color="#eaeff2"
         offset="0.879" />
      <stop
         id="SvgjsStop3615"
         stop-opacity="1"
         stop-color="#d9e3e8"
         offset="0.992" />
      <stop
         id="SvgjsStop3616"
         stop-opacity="1"
         stop-color="#d8e2e7"
         offset="1" />
    </radialGradient>
    <radialGradient
       id="SvgjsRadialGradient3620"
       cx="123.715"
       cy="85.489"
       fx="135.434"
       fy="85.522"
       r="16.667"
       gradientTransform="matrix(0.9998 0.0208 0.0166 -0.7998 -48.826 151.2907)"
       gradientUnits="userSpaceOnUse"
       class="svga-on-canvas-eyesfront-gradient-left-3">
      <stop
         id="SvgjsStop3621"
         stop-opacity="1"
         stop-color="#e1ac8f"
         offset="0" />
      <stop
         id="SvgjsStop3622"
         stop-opacity="0.3"
         stop-color="#e1ac8f"
         offset="0.7" />
      <stop
         id="SvgjsStop3623"
         stop-opacity="0"
         stop-color="#f0c7b1"
         offset="1" />
    </radialGradient>
    <radialGradient
       id="SvgjsRadialGradient3625"
       cx="122.874"
       cy="101.325"
       r="26.878"
       gradientTransform="matrix(-1 0 0 0.7923 200 21.0491)"
       gradientUnits="userSpaceOnUse"
       class="svga-on-canvas-eyesfront-gradient-left-4">
      <stop
         id="SvgjsStop3626"
         stop-opacity="0"
         stop-color="#000000"
         offset="0.95" />
      <stop
         id="SvgjsStop3627"
         stop-opacity="0.2"
         stop-color="#000000"
         offset="1" />
    </radialGradient>
    <radialGradient
       id="SvgjsRadialGradient3631"
       cx="125.89"
       cy="84.919"
       r="10.712"
       gradientUnits="userSpaceOnUse"
       class="svga-on-canvas-eyesfront-gradient-right-0">
      <stop
         id="SvgjsStop3632"
         stop-opacity="1"
         stop-color="#ffffff"
         offset="0" />
      <stop
         id="SvgjsStop3633"
         stop-opacity="1"
         stop-color="#fdfefe"
         offset="0.544" />
      <stop
         id="SvgjsStop3634"
         stop-opacity="1"
         stop-color="#f6f8f9"
         offset="0.74" />
      <stop
         id="SvgjsStop3635"
         stop-opacity="1"
         stop-color="#eaeff2"
         offset="0.879" />
      <stop
         id="SvgjsStop3636"
         stop-opacity="1"
         stop-color="#d9e3e8"
         offset="0.992" />
      <stop
         id="SvgjsStop3637"
         stop-opacity="1"
         stop-color="#d8e2e7"
         offset="1" />
    </radialGradient>
    <radialGradient
       id="SvgjsRadialGradient3641"
       cx="123.315"
       cy="85.489"
       fx="135.034"
       fy="85.522"
       r="16.667"
       gradientTransform="matrix(-0.9998 0.0208 -0.0166 -0.7998 248.0273 151.299)"
       gradientUnits="userSpaceOnUse"
       class="svga-on-canvas-eyesfront-gradient-right-3">
      <stop
         id="SvgjsStop3642"
         stop-opacity="1"
         stop-color="#e1ac8f"
         offset="0" />
      <stop
         id="SvgjsStop3643"
         stop-opacity="0.3"
         stop-color="#e1ac8f"
         offset="0.7" />
      <stop
         id="SvgjsStop3644"
         stop-opacity="0"
         stop-color="#f0c7b1"
         offset="1" />
    </radialGradient>
    <radialGradient
       id="SvgjsRadialGradient3646"
       cx="122.475"
       cy="101.325"
       r="26.878"
       gradientTransform="matrix(1 0 0 0.7923 0 21.0491)"
       gradientUnits="userSpaceOnUse"
       class="svga-on-canvas-eyesfront-gradient-right-4">
      <stop
         id="SvgjsStop3647"
         stop-opacity="0"
         stop-color="#000000"
         offset="0.95" />
      <stop
         id="SvgjsStop3648"
         stop-opacity="0.2"
         stop-color="#000000"
         offset="1" />
    </radialGradient>
  </defs>
  <g
     id="svga-group-wrapper">
    <g
       id="svga-group-backs-single"
       style="fill:#ffffff;fill-opacity:1">
      <path
         id="SvgjsPath3401"
         d="M225 225H-25V-25h250V225z"
         fill="#14305c"
         stroke-width="none"
         opacity="1"
         style="fill:#ffffff;fill-opacity:1" />
    </g>
    <g
       id="svga-group-humanwrap-move"
       transform="matrix(1,0,0,1,0,0)">
      <g
         id="svga-group-humanwrap"
         transform="matrix(1,0,0,1,0,0)">
        <g
           id="svga-group-hair-back-move"
           transform="matrix(1,0,0,1,0,0)">
          <g
             id="svga-group-hair-back"
             transform="matrix(1,0,0,1,0,0)">
            <path
               id="SvgjsPath3527"
               d="M100.5,100.5h-1v-1h1V100.5z"
               fill="#2a232b"
               stroke-width="none"
               opacity="1" />
          </g>
        </g>
        <g
           id="svga-group-humanbody-single">
          <path
             id="SvgjsPath2911"
             d="M195.417 199.778c-2.196-4.746-8.195-11.779-14.86-13.722 -8.239-2.403-26.837-5.308-33.733-6.923 -5.528-1.296-16.662-11.294-20.564-14.65 -0.7-0.6-1.273-1.839-1.287-2.76 -0.139-10.864 4.195-39.724 4.195-39.724H100 70.833c0 0 4.334 28.859 4.193 39.724 -0.011 0.921-0.587 2.16-1.285 2.76 -3.902 3.356-15.036 13.354-20.564 14.65 -6.897 1.615-25.495 4.619-33.733 7.022 -6.667 1.942-12.664 8.876-14.86 13.622 -3.708 8.008-4.584 22.5-4.584 35h100 100C200 222.278 199.123 207.786 195.417 199.778z"
             fill="#f0c7b1"
             stroke-width="none"
             opacity="1"
             stroke="none" />
          <path
             id="SvgjsPath2912"
             d="M159.156 184.058c24.342 3.542 34.586 8.708 37.794 50.721H200c0-12.5-0.877-26.992-4.583-35 -2.196-4.746-8.195-11.779-14.86-13.722 -8.239-2.403-26.837-5.308-33.733-6.923 -5.528-1.296-18.242-12.069-21.643-16.35 3.36 4.704 12.791 15.605 21.054 18.46C150.188 182.61 153.48 183.232 159.156 184.058zM53.766 181.244c8.263-2.854 17.693-13.756 21.054-18.46 -3.4 4.28-16.114 15.054-21.643 16.35 -6.896 1.615-25.494 4.619-33.733 7.022 -6.665 1.942-12.664 8.876-14.86 13.622 -3.706 8.008-4.583 22.5-4.583 35h3.05c3.188-41.744 13.475-47.183 37.794-50.721C46.52 183.232 49.813 182.61 53.766 181.244z"
             fill="#ffe4d6"
             stroke-width="none"
             opacity="1"
             stroke="none" />
          <path
             id="SvgjsPath2913"
             d="M95.646 197.62c0 0-5.074-1.609-7.083-2.379 -10.449-4.009-44.395-6.607-44.395-6.607s35.754 1.419 43.644 2.779c-0.458-4.767-3.017-20.004-3.017-20.004s5.149 16.815 6.409 21.057C91.878 194.734 95.646 197.62 95.646 197.62zM106.445 196.278c-0.089 0.073-0.191 0.168-0.302 0.268C106.256 196.461 106.358 196.372 106.445 196.278zM95.646 197.62c0 0 2.893 2.992 4.347 3.03 1.91 0.051 4.828-2.899 6.151-4.104 -1.265 0.957-4.159 1.391-5.31 1.436C99.504 198.033 95.646 197.62 95.646 197.62zM116.664 190.101c-1.545 0.248-4.386 0.789-4.386 0.789l2.287-14.89c-0.646 3.071-4.474 16.211-8.12 20.278 1.91-1.616 6.158-2.391 8.324-2.704 10.236-1.484 10.232-1.483 41.062-4.94C155.831 188.634 126.76 188.479 116.664 190.101z"
             fill="#e1ac8f"
             stroke-width="none"
             opacity="1"
             stroke="none" />
          <path
             id="SvgjsPath2914"
             d="M195.417 199.778c-2.196-4.746-8.195-11.779-14.86-13.722 -8.239-2.403-26.837-5.308-33.733-6.923 -5.528-1.296-16.662-11.294-20.564-14.65 -0.7-0.6-1.273-1.839-1.287-2.76 -0.139-10.864 4.195-39.724 4.195-39.724H100 70.833c0 0 4.334 28.859 4.193 39.724 -0.011 0.921-0.587 2.16-1.285 2.76 -3.902 3.356-15.036 13.354-20.564 14.65 -6.897 1.615-25.495 4.619-33.733 7.022 -6.667 1.942-12.664 8.876-14.86 13.622 -3.708 8.008-4.584 22.5-4.584 35h100 100C200 222.278 199.123 207.786 195.417 199.778z"
             fill="none"
             stroke="#c27b55"
             stroke-width="1.5"
             opacity="1" />
        </g>
        <g
           id="svga-group-chinshadow-single">
          <path
             id="SvgjsPath3470"
             d="M100.002 170.866c11.391 0 16.629-6.36 24.218-9.638 -0.008-7.932 2.039-23.933 3.282-32.907 -16.136-1.852-38.871-1.852-55.006 0.001 1.243 8.973 3.29 24.972 3.281 32.903C83.37 164.502 88.608 170.866 100.002 170.866z"
             fill="url(#SvgjsLinearGradient3471)"
             opacity="1" />
        </g>
        <g
           id="svga-group-clothes-single">
          <path
             id="SvgjsPath3533"
             d="M-3.682 236.192c-2.914-24.293 8.022-47.09 34.496-54.611 7.77-2.208 5.691-3.341 6.867-3.41 -0.039-0.211-0.045-0.2-0.045-0.63h-0.036c0.087-8.03 9.028-6.453 11.587-6.984 10.121-2.158 13.558-12.786 25.115-9.985 0.284 2.437 0.075 5.248-1.371 15.663 10.899 23.466 22.722 21.437 26.925 34.571 3.815-11.746 17.339-13.617 27.306-34.576 -0.655-5.884-2.083-11.033-1.482-15.935l0.057-0.042c7.744-2.583 11.127 0.874 14.21 3.854 9.397 9.083 14.382 3.325 19.085 7.457 1.871 1.659 2.547 3.997 2.547 6.518 21.412 3.11 45.974 9.898 41.089 57.481l0.096 0.104C181.094 235.667 57.546 241.095-3.682 236.192z"
             fill="#1d282e"
             stroke-width="none"
             opacity="1"
             stroke="none" />
          <path
             id="SvgjsPath3534"
             d="M100.268 209.685c4.229-10.638 16.946-13.132 26.543-32.755 0.098-0.108 0.347-0.591 0.656-1.237 -0.164-1.826-0.372-3.747-1.213-5.757 -0.522-3.35-0.939-6.489-0.587-9.535 1.974 0.578 3.842 1.262 5.12 2.66 1.882 2.052 0.455 5.609-1.346 9.042C126.063 186.844 117.594 197.493 100.268 209.685zM169.282 198.859c2.938 10.376 4.895 26.928 2.544 37.445 1.962-0.045 2.686-0.097 4.506-0.138C177.146 225.12 175.154 207.48 169.282 198.859zM137.604 200.735c-12.805 7.48-25.687 10.358-37.321 20.291 -11.64-9.904-24.647-11.637-37.453-19.108 -5.87-2.36-14.874-10.699-20.377-16.572 17.313 26.284 29.706 18.823 57.434 36.538 27.736-17.715 40.205-11.692 57.516-37.974C151.9 189.782 143.476 198.39 137.604 200.735zM99.81 210.936c-4.238-10.644-16.459-14.383-26.056-34.006 -0.093-0.108-0.343-0.591-0.652-1.237 0.156-1.826-0.262-3.841 0.586-5.857 0.521-3.358 0.748-6.092 0.393-9.132 -1.969 0.574-3.025 0.959-4.303 2.357 -1.88 2.052-0.453 5.609 1.347 9.042C74.502 186.844 82.479 198.74 99.81 210.936zM27.163 197.688c-4.305 9.396-4.34 27.432-3.528 38.479 1.821 0.041 2.548 0.093 4.506 0.138C25.791 225.787 26.379 208.26 27.163 197.688zM99.888 212.964c16.389-4.909 33.813-13.894 48.305-35.847 -13.084 17.643-32.525 28.063-47.926 34.455 -15.89-5.762-34.915-17.221-46.006-32.635C67.257 200.226 83.508 208.055 99.888 212.964z"
             fill="#101a1f"
             stroke-width="none"
             opacity="1"
             stroke="none" />
          <path
             id="SvgjsPath3535"
             d="M202.762 235.667c-0.115 0-0.256 0.001-0.374 0.001 -0.427-48.615-27.497-50.574-42.48-53.725 -2.345 0-3.563-6.505-5.288-8.24 -1.467-1.475-12.769-1.475-16.348-11.169 0.583 0.513 1.131 1.052 1.674 1.573 9.397 9.083 14.382 3.325 19.085 7.457 1.871 1.659 2.547 3.997 2.547 6.518 21.412 3.11 45.974 9.898 41.089 57.481L202.762 235.667zM-3.968 236.84c0.114 0 0.255 0.001 0.376 0.001 4.759-38.632 16.029-50.811 43.543-55.364 3.451-1.313 1.634-3.81 3.362-5.544 1.467-1.468 9.627-1.5 20.924-13.389 -0.582 0.513-3.075 1.042-3.615 1.563 -9.398 9.083-16.485 6.51-19.088 7.457 -3.209 1.188-3.707 4.028-3.707 6.546 -21.414 3.111-44.161 14.974-41.702 58.626L-3.968 236.84z"
             fill="#2d373d"
             stroke-width="none"
             opacity="1"
             stroke="none" />
          <path
             id="SvgjsPath3536"
             d="M161.69 177.978c0-9.858-9.265-7.895-13.529-8.812 -9.409-2.02-9.113-12.916-22.582-8.985 -0.574 4.657 0.516 8.738 1.473 15.997 -9.877 20.755-23.576 23.093-27.196 34.245 -3.957-12.38-16.045-11.134-26.81-34.171 1.498-10.838 1.648-13.354 1.36-15.774 -10.271-2.349-12.588 4.32-21.876 8.776 -5.637 2.642-7.229 0.263-12.067 2.633 -2.007 0.968-3.018 3.609-2.946 5.767 -0.013 0.01 0 0.01 0 0.01 0 0.139 0 0.267 0.023 0.396 -1.175 0.082 0.546 0.074-7.323 1.346 -25.363 4.1-36.61 25.534-34.005 56.906 11.89 0 1.011 4.382 183.147-0.077 8.456-0.214 22.799-0.447 23.402-0.447C208.321 189.265 184.836 181.568 161.69 177.978zM-3.624 236.057c2.579-36.004 8.018-50.026 41.046-57.329 17.978 29.839 39.98 25.499 62.232 42.189 -20.166-16.771-41.302-14.549-61.622-42.583 -0.228-2.354 1-4.943 3.535-5.959 1.796-0.702 3.72-0.498 5.6-0.488 7.087 0.054 12.546-5.502 17.793-9.578 2.499-1.67 6.22-1.752 9.2-1.292 0.231 3.874-1.262 9.721-1.762 13.845 -1.042-2.295-2.029-4.664-3.015-7.022 12.47 36.624 24.903 28.334 30.461 43.525 -1.177-0.327-21.014-7.468-36.822-23.188 -3.358-3.325-10.011-10.656-10.516-11.34 19.573 26.51 32.079 27.86 47.391 34.691 0 0.01 0.021 0.035 0.021 0.048 0.012 0.036 0.068 0.221 0.086 0.256 0.074-0.033 0.158-0.07 0.239-0.091 0.026-0.022 0.047-0.033 0.08-0.033 2.122-1.043 16.065-5.902 26.681-13.2 10.927-7.517 23.39-23.821 22.451-22.64 -18.253 18.573-21.075 22.785-49.212 35.67 -0.027 0-0.048-0.01-0.069-0.021 -0.022-0.131-0.064-0.257-0.107-0.387 0.011-0.062 0.032-0.121 0.054-0.178 4.948-13.579 19.476-8.33 31.51-45.554 -1.232 3.216-2.527 6.382-3.979 9.486 -0.457-5.455-2.042-9.756-1.865-14.247 2.084-0.693 7.742-1.022 9.308 0.542 6.529 5.586 7.059 9.677 17.696 9.677 3.411 0.02 7.871 0.45 8.375 6.708 -0.627 0.922-5.291 6.431-9.703 10.809 -15.438 15.368-29.249 15.664-50.619 32.007 0.521 0 1.605-1.131 2.029-1.418 16.712-11.864 28.719-11.677 44.085-24.249 7.082-5.785 13.897-15.044 14.63-16.222 0.022 0.013 0.059 0.013 0.079 0.013 28.198 4.853 42.321 15.462 40.764 57.069C76.043 234.783 58.884 238.145-3.624 236.057z"
             fill="#000000"
             stroke-width="none"
             opacity="1"
             stroke="none" />
        </g>
        <g
           id="svga-group-head"
           transform="matrix(1,0,0,1,0,0)">
          <g
             id="svga-group-ears-left-move"
             transform="matrix(1,0,0,1,0,0)">
            <g
               id="svga-group-ears-left"
               transform="matrix(1,0,0,1,0,0)">
              <path
                 id="SvgjsPath2924"
                 d="M45.671 84.344c-1.485-2.462-6.327-9.199-10.031-8.254 -3.012 0.772-2.973 4.971-3.206 7.455 -0.34 3.644-0.464 9.992 0.525 12.568 0.951 2.473 3.96 7.252 5.828 9.075 2.299 2.235 5.97 9.358 6.422 10.097 0.711 1.168 2.137 2.84 4.325 2.708 3.071-0.185 5.724-3.087 5.965-4.485C56.8 105.918 49.536 90.75 45.671 84.344z"
                 fill="#f0c7b1"
                 stroke="#c27b55"
                 stroke-width="1.5"
                 opacity="1" />
              <path
                 id="SvgjsPath2925"
                 d="M44.2 99.341c-0.143-0.563 0.007-1.513 0.154-2.429 0.133-0.835 0.258-1.624 0.182-2.182 -0.289-2.09-1.915-6.06-2.976-8.212 -1.223-2.476-3.199-5.595-5.679-6.399 -1.024-0.333-1.699 0.065-2.089 0.468 -0.288 0.296-0.353 0.645-0.259 0.687 0.095 0.041 0.307-0.248 0.617-0.519 0.254-0.222-0.508-0.04 0 0 -0.205 1.04-0.865 6.302-0.41 10.143 0.358 3.022 1.05 5.279 1.263 5.617 0.031 0.356 0.083 0.705 0.16 1.043 1.002 4.41 7.518 10.177 9.034 11.82 0.28 0.303 0.574 0.483 0.646 0.409s-0.101-0.373-0.379-0.678c-1.498-1.632-7.971-7.381-8.939-11.635 -1.027-4.514 3.912-11.207 4.699-12.623 0.401 0.665 0.742 1.303 1.004 1.835 0.207 0.417 0.434 0.906 0.67 1.435 -0.463 0.738-5.118 6.127-3.934 10.441 0.438 1.591 3.822 3.642 5.131 4.203 0.72 0.31 0.99 0.772 1.304 1.306 0.364 0.624 0.033 2.229 1.23 2.739 0.244 0.104 0.464 0.146 0.659 0.146 0.338 0 0.594-0.13 0.783-0.284 0.02 0.271 0.019 0.619 0.009 0.941 -0.012 0.418 0.047 0.609 0.148 0.617 0.103 0.009 0.21-0.174 0.223-0.587 0.017-0.51 0.014-1.141-0.077-1.444 -0.269-0.889-1.088-1.894-1.957-2.957C44.563 102.197 44.422 100.213 44.2 99.341zM34.969 95.432c-2.348-6.923 1.283-13.229 1.81-14.179 1.012 0.399 2.562 2.193 3.221 3.235C39.52 85.321 35.067 90.775 34.969 95.432zM45.772 106.464c-1.084-0.462-0.706-1.984-1.056-2.584 -0.318-0.542-0.646-1.102-1.479-1.46 -0.18-0.078-0.379-0.196-0.583-0.332 -2.682-6.075 0.293-8.73 1.039-9.273 0.229 0.742 0.399 1.423 0.476 1.97 0.068 0.5-0.059 1.298-0.181 2.068 -0.153 0.955-0.31 1.944-0.147 2.584 0.244 0.953 0.411 2.97 1.291 4.048 0.781 0.956 1.583 1.942 1.857 2.746C46.871 106.391 46.5 106.775 45.772 106.464z"
                 fill="#c27b55"
                 stroke-width="none"
                 opacity="1"
                 stroke="none" />
            </g>
          </g>
          <g
             id="svga-group-ears-right-move"
             transform="matrix(1,0,0,1,0,0)">
            <g
               id="svga-group-ears-right"
               transform="matrix(1,0,0,1,0,0)">
              <path
                 id="SvgjsPath2926"
                 d="M154.066 84.344c1.486-2.462 6.328-9.199 10.031-8.254 3.012 0.772 2.973 4.971 3.207 7.455 0.34 3.644 0.463 9.992-0.525 12.568 -0.951 2.473-3.961 7.252-5.828 9.075 -2.299 2.235-5.971 9.358-6.422 10.097 -0.711 1.168-2.137 2.84-4.326 2.708 -3.07-0.185-5.723-3.087-5.965-4.485C142.938 105.918 150.203 90.75 154.066 84.344z"
                 fill="#f0c7b1"
                 stroke="#c27b55"
                 stroke-width="1.5"
                 opacity="1" />
              <path
                 id="SvgjsPath2927"
                 d="M154.322 103.243c-0.869 1.063-1.688 2.068-1.957 2.957 -0.092 0.304-0.094 0.935-0.078 1.444 0.014 0.413 0.121 0.596 0.225 0.587 0.102-0.008 0.16-0.199 0.148-0.617 -0.01-0.322-0.012-0.67 0.008-0.941 0.189 0.154 0.445 0.284 0.783 0.284 0.195 0 0.416-0.042 0.66-0.146 1.195-0.511 0.865-2.116 1.229-2.739 0.314-0.534 0.584-0.997 1.305-1.306 1.309-0.561 4.693-2.611 5.131-4.203 1.184-4.314-3.471-9.704-3.934-10.441 0.234-0.529 0.463-1.018 0.668-1.435 0.264-0.532 0.604-1.171 1.006-1.835 0.787 1.416 5.725 8.108 4.699 12.623 -0.969 4.254-7.441 10.003-8.939 11.635 -0.279 0.305-0.453 0.604-0.381 0.678 0.074 0.074 0.367-0.106 0.646-0.409 1.516-1.643 8.031-7.41 9.033-11.82 0.078-0.338 0.131-0.687 0.162-1.043 0.211-0.337 0.904-2.594 1.262-5.617 0.455-3.841-0.205-9.103-0.41-10.143 0.508-0.04-0.254-0.222 0 0 0.311 0.271 0.523 0.56 0.617 0.519 0.094-0.042 0.029-0.39-0.258-0.687 -0.391-0.403-1.066-0.801-2.09-0.468 -2.48 0.804-4.457 3.923-5.68 6.399 -1.061 2.152-2.686 6.122-2.975 8.212 -0.076 0.558 0.049 1.347 0.182 2.182 0.146 0.916 0.297 1.866 0.154 2.429C155.316 100.213 155.176 102.197 154.322 103.243zM159.738 84.488c0.66-1.042 2.209-2.835 3.221-3.235 0.527 0.95 4.158 7.256 1.811 14.179C164.672 90.775 160.219 85.321 159.738 84.488zM152.75 106.229c0.273-0.804 1.076-1.79 1.857-2.746 0.879-1.078 1.047-3.095 1.291-4.048 0.162-0.64 0.006-1.629-0.146-2.584 -0.123-0.77-0.25-1.568-0.182-2.068 0.076-0.547 0.246-1.228 0.475-1.97 0.746 0.543 3.721 3.199 1.039 9.273 -0.203 0.136-0.402 0.254-0.584 0.332 -0.832 0.358-1.16 0.918-1.479 1.46 -0.35 0.6 0.029 2.123-1.055 2.584C153.238 106.775 152.867 106.391 152.75 106.229z"
                 fill="#c27b55"
                 stroke-width="none"
                 opacity="1"
                 stroke="none" />
            </g>
          </g>
          <g
             id="svga-group-faceshape-wrap"
             transform="matrix(1,0,0,1,0,0)">
            <g
               id="svga-group-faceshape-single">
              <path
                 id="SvgjsPath3467"
                 d="M100.002 0.867C66.384 0.92 39.082 28.536 39.134 62.56c0.009 5.403 0.704 10.643 2.002 15.634h0.001c0.012 0.054 8.12 35.809 11.82 47.522 2.775 8.787 14.288 21.989 22.398 25.322 7.826 3.217 13.039 9.828 24.646 9.828s16.82-6.611 24.646-9.828c8.11-3.333 19.624-16.535 22.398-25.322 3.7-11.713 11.809-47.468 11.819-47.522h0.002c1.298-4.992 1.994-10.231 2.002-15.634C160.923 28.536 133.62 0.92 100.002 0.867z"
                 fill="#f0c7b1"
                 stroke-width="none"
                 opacity="1" />
              <path
                 id="SvgjsPath3468"
                 d="M140.727 16.737c10.424 11.164 16.867 26.574 16.844 43.586 -0.009 5.403-0.666 10.643-1.894 15.634h-0.001c-0.011 0.054-7.681 35.809-11.18 47.522 -2.623 8.788-13.515 21.989-21.184 25.322 -7.403 3.216-12.333 9.829-23.31 9.829 -10.978 0-15.908-6.613-23.309-9.829 -7.671-3.333-18.56-16.534-21.184-25.322 -3.5-11.713-11.168-47.468-11.18-47.522h-0.001c-1.229-4.992-1.886-10.231-1.894-15.634 -0.025-17.011 6.418-32.419 16.84-43.583C46.893 28.034 39.106 44.38 39.134 62.56c0.009 5.403 0.704 10.643 2.002 15.634h0.001c0.012 0.054 8.12 35.809 11.82 47.522 2.775 8.787 14.288 21.989 22.398 25.322 7.826 3.217 13.039 9.828 24.646 9.828s16.82-6.611 24.646-9.828c8.11-3.333 19.624-16.535 22.398-25.322 3.7-11.713 11.809-47.468 11.819-47.522h0.002c1.298-4.992 1.994-10.231 2.002-15.634C160.898 44.378 153.111 28.031 140.727 16.737z"
                 fill="#e8b9a0"
                 stroke-width="none"
                 opacity="1" />
              <path
                 id="SvgjsPath3469"
                 d="M100.002 0.867C66.384 0.92 39.082 28.536 39.134 62.56c0.009 5.403 0.704 10.643 2.002 15.634h0.001c0.012 0.054 8.12 35.809 11.82 47.522 2.775 8.787 14.288 21.989 22.398 25.322 7.826 3.217 13.039 9.828 24.646 9.828s16.82-6.611 24.646-9.828c8.11-3.333 19.624-16.535 22.398-25.322 3.7-11.713 11.809-47.468 11.819-47.522h0.002c1.298-4.992 1.994-10.231 2.002-15.634C160.923 28.536 133.62 0.92 100.002 0.867z"
                 fill="none"
                 stroke="#c27b55"
                 stroke-width="1.5"
                 opacity="1" />
            </g>
          </g>
          <g
             id="svga-group-mouth-single-move"
             transform="matrix(1,0,0,1,0,0)">
            <g
               id="svga-group-mouth-single"
               transform="matrix(1,0,0,1,0,0)">
              <path
                 id="SvgjsPath3582"
                 d="M100.389 141.808c-3.458 0-4.907-2.678-4.907-2.678l9.74-0.188C105.222 138.941 103.433 141.808 100.389 141.808z"
                 fill="url(#SvgjsLinearGradient3583)"
                 opacity="1" />
              <path
                 id="SvgjsPath3586"
                 d="M98.82 139.206c-1.781 0-3.136-0.171-3.231-0.184 -0.146-0.02-0.248-0.146-0.228-0.282 0.02-0.138 0.157-0.227 0.301-0.214 0.04 0.006 6.084 0.5 9.357-0.195 0.156-0.03 0.289 0.057 0.321 0.189 0.031 0.135-0.06 0.269-0.202 0.299C103.729 139.118 100.096 139.206 98.82 139.206zM84.391 133.824c-0.365-0.663 4.097 0.111 6.79-0.551 2.98-0.732 6.101 0.208 9.133 0.479 2.382 0.213 4.838-0.975 7.191-0.436 3.261 0.747 8.236-0.196 7.843 0.594 -0.273 0.548-4.893 1.05-7.524 0.604 -2.301-0.39-4.683 0.556-7.006 0.73 -2.885 0.217-5.767-1.385-8.614-0.933C88.922 134.832 84.701 134.388 84.391 133.824z"
                 fill="#c27b55"
                 stroke-width="none"
                 opacity="1" />
            </g>
          </g>
          <g
             id="svga-group-eyes-left-move"
             transform="matrix(1,0,0,1,0,0)">
            <g
               id="svga-group-eyes-left"
               transform="matrix(0.8999997000000001,0,0,0.8999997000000001,7.424875217979235,8.499925554631801)">
              <g
                 id="svga-group-eyesback-left">
                <path
                   id="SvgjsPath3593"
                   d="M59.722 85.795c2.578 4.596 2.19 5.704 10.268 4.467 9.691 0 17.711-1.976 17.711-5.558 0-3.582-4.925-7.115-17.196-4.923C64.489 80.855 59.722 84 59.722 85.795z"
                   fill="url(#SvgjsRadialGradient3594)"
                   opacity="1" />
              </g>
              <g
                 id="svga-group-eyesiriswrapper-left"
                 transform="matrix(1,0,0,1,0.25,0.25)">
                <g
                   id="svga-group-eyesiriscontrol-left"
                   transform="matrix(1,0,0,1,0,0)">
                  <g
                     id="svga-group-eyesiris-left"
                     transform="matrix(1,0,0,1,0,0)">
                    <path
                       id="SvgjsPath3412"
                       d="M80 84c0 3.313-2.687 5.999-6 5.999S68 87.313 68 84c0-3.316 2.687-6.001 6-6.001S80 80.685 80 84z"
                       fill="#7b5c33"
                       stroke-width="none"
                       opacity="1" />
                    <path
                       id="SvgjsPath3413"
                       d="M70.512 86.805c0.875-0.072 0.1-0.306 0.1-0.306 -0.433-0.233-1.248-0.592-1.248-0.921 0-1.031 1.414-1.299-0.034-1.705 -1.504-1.38 1.167-1.352 1.147-1.398 -0.975-2.376 0.299-1.071 0.835-1.773 1.988-2.599 0.554 0.267 1.633 0 0.391-0.096-0.78-1.531 0.034-1.33 0.539 0.132 0.662 0.58 0.662 0.58 0.393-0.077 1.008-0.682 1.008-0.682 0.749 0.226 1.275 1.29 1.043 1.091 0.368-0.045 0.884-0.221 1.286-0.341 0 0 0.07-0.239 0.139-0.033 0.917 2.661 3.284 2.47 0.559 3.24 0 0-0.176 0 0.382 0.442 2.71 2.164-2.102 1.495 0.451 2.49 0.104-0.104-1.53 0.965-1.53 1.261 0 0.501-1.042 1.818-1.946 1.3 -0.504-0.288-0.581 0.6-0.877 0.19 -0.581-0.803-1.742-0.035-1.313-0.773 0.634-0.521-0.654 0.204-0.904 0.204 -0.828 0 1.083-2.783 3.894-0.715 0.822 0.602-0.864-1.433 0.625-1.433 0.149 0.049 0.104-0.521 0.104-0.682 -0.774-0.151 1.39-0.003 1.39-1.262 0.137 0.027 0.509-0.35-1.635 0 0 0-0.068-0.75-0.034-0.886 0.11-0.438 1.214-0.298 0.904-0.75 0-0.001-0.799-1.604-0.799-1.604 -2.573-0.414-1.102-0.672-2.711-0.341 -0.076 0.378-3.445 1.984-3.338 2.729 0.1 0.702 2.115 0.938 0.208 2.182C73.405 91.051 68.437 85.454 70.512 86.805z"
                       fill="#8a6d47"
                       stroke-width="none"
                       opacity="1" />
                    <path
                       id="SvgjsPath3414"
                       d="M74 78.749l0.171 4.393 1.837-3.993 -1.523 4.123 3.227-2.985 -2.985 3.226 4.124-1.523 -3.992 1.839 4.392 0.17 -4.392 0.17 3.992 1.839 -4.124-1.523 2.985 3.226 -3.227-2.985 1.523 4.123 -1.837-3.993L74 89.249l-0.171-4.393 -1.838 3.993 1.522-4.123 -3.226 2.985 2.985-3.226 -4.124 1.523 3.992-1.839 -4.39-0.17 4.39-0.17 -3.992-1.839 4.124 1.523 -2.985-3.226 3.226 2.985 -1.522-4.123 1.838 3.993L74 78.749z"
                       fill="#5c3d14"
                       stroke-width="none"
                       opacity="1" />
                    <path
                       id="SvgjsPath3415"
                       d="M74.796 80.067l-0.539 3.315 1.981-2.711 -1.766 2.857 2.87-1.748 -2.725 1.964 3.319-0.515L74.668 84l3.266 0.794 -3.317-0.538 2.712 1.982 -2.858-1.765 1.748 2.869 -1.964-2.725 0.516 3.319 -0.771-3.27 -0.795 3.264 0.539-3.315 -1.984 2.711 1.768-2.857 -2.869 1.748 2.725-1.964 -3.319 0.516 3.269-0.771 -3.264-0.793 3.315 0.537 -2.712-1.982 2.858 1.765 -1.747-2.869 1.964 2.725 -0.516-3.318 0.772 3.27L74.796 80.067z"
                       fill="#4d3009"
                       stroke-width="none"
                       opacity="1" />
                    <path
                       id="SvgjsPath3416"
                       d="M76.25 84c0 1.243-1.008 2.25-2.25 2.25s-2.25-1.007-2.25-2.25 1.008-2.25 2.25-2.25S76.25 82.757 76.25 84z"
                       fill="#000000"
                       stroke-width="none"
                       opacity="0.9" />
                    <path
                       id="SvgjsPath3417"
                       d="M71.637 88.311c-0.331 0.332-0.985 0.215-1.46-0.261 -0.476-0.475-0.593-1.129-0.261-1.461 0.331-0.331 0.985-0.214 1.46 0.261C71.852 87.326 71.969 87.979 71.637 88.311z"
                       fill="#ffffff"
                       stroke-width="none"
                       opacity="0.7" />
                    <path
                       id="SvgjsPath3418"
                       d="M78.806 82.818c-0.496 0.496-1.697 0.1-2.682-0.886 -0.986-0.986-1.382-2.187-0.886-2.683 0.496-0.496 1.697-0.1 2.682 0.886C78.906 81.122 79.302 82.322 78.806 82.818z"
                       fill="#ffffff"
                       stroke-width="none"
                       opacity="0.9" />
                  </g>
                </g>
              </g>
              <g
                 id="svga-group-eyesfront-left">
                <path
                   id="SvgjsPath3618"
                   d="M54.8 84.999c0 13.807 8.507 25 19 25s19-11.193 19-25 -8.507-25-19-25S54.8 71.192 54.8 84.999zM59.722 85.795c0-1.795 4.768-4.939 10.782-6.014C82.775 77.589 87.7 81.123 87.7 84.704c0 3.582-8.02 5.558-17.711 5.558C61.912 91.499 62.3 90.391 59.722 85.795z"
                   fill="#f0c7b1"
                   stroke-width="none"
                   opacity="1" />
                <path
                   id="SvgjsPath3619"
                   d="M58.697 86.046c-0.075 6.904 8.647 12.467 18.038 12.434 9.389-0.04 16.987-5.663 16.962-12.568 -0.023-6.903-7.647-12.467-17.04-12.431C67.265 73.519 58.799 76.602 58.697 86.046zM59.722 85.795c0-1.795 4.768-4.939 10.782-6.014C82.775 77.589 87.7 81.123 87.7 84.704c0 3.582-8.02 5.558-17.711 5.558C61.912 91.499 62.3 90.391 59.722 85.795z"
                   fill="url(#SvgjsRadialGradient3620)"
                   opacity="1" />
                <path
                   id="SvgjsPath3624"
                   d="M59.722 85.795c2.578 4.596 2.19 5.704 10.268 4.467 9.691 0 17.711-1.976 17.711-5.558 0-3.582-4.925-7.115-17.196-4.923C64.489 80.855 59.722 84 59.722 85.795z"
                   fill="url(#SvgjsRadialGradient3625)"
                   opacity="1" />
                <path
                   id="SvgjsPath3628"
                   d="M86.716 88.797c0 0-1.383 0.778-2.354 1.036 -1.209 0.318-4.997 0.895-11.562 1.795 7.49-0.531 10.48-0.82 11.762-1.189C85.578 90.147 86.716 88.797 86.716 88.797z"
                   fill="#c27b55"
                   stroke-width="none"
                   opacity="1" />
                <path
                   id="SvgjsPath3629"
                   d="M87.757 83.463c0.062 0.073 0.057 0.18-0.011 0.247 -0.068 0.066-0.175 0.069-0.247 0.007l-3.871-3.383c-11.411-1.304-19.93 0.687-23.25 5.247l0.536 2.4 -3.114-2.69c3.172-4.526 6.306-7.915 25.828-6.735C85.933 80.808 87.137 81.935 87.757 83.463zM86.632 87.442c0.082-0.079 0.102-0.205 0.048-0.306 -0.052-0.103-0.166-0.156-0.279-0.135 -3.954 2.317-11.021 2.523-22.642 3.426l-2.25-1.384 1.653 2.046C75.744 90.501 85.006 89.756 86.632 87.442z"
                   fill="#000000"
                   stroke-width="none"
                   opacity="1" />
              </g>
            </g>
          </g>
          <g
             id="svga-group-eyes-right-move"
             transform="matrix(1,0,0,1,0,0)">
            <g
               id="svga-group-eyes-right"
               transform="matrix(0.8999997000000001,0,0,0.8999997000000001,12.535234291381059,8.499925554631801)">
              <g
                 id="svga-group-eyesback-right">
                <path
                   id="SvgjsPath3601"
                   d="M139.879 85.795c-2.578 4.596-2.19 5.704-10.268 4.467 -9.691 0-17.711-1.976-17.711-5.558 0-3.582 4.925-7.115 17.196-4.923C135.111 80.855 139.879 84 139.879 85.795z"
                   fill="url(#SvgjsRadialGradient3602)"
                   opacity="1" />
              </g>
              <g
                 id="svga-group-eyesiriswrapper-right"
                 transform="matrix(1,0,0,1,-0.25,0.25)">
                <g
                   id="svga-group-eyesiriscontrol-right"
                   transform="matrix(1,0,0,1,0,0)">
                  <g
                     id="svga-group-eyesiris-right"
                     transform="matrix(1,0,0,1,0,0)">
                    <path
                       id="SvgjsPath3419"
                       d="M132,83.999c0,3.316-2.684,6-6,6s-6-2.684-6-6s2.684-6,6-6S132,80.683,132,83.999z"
                       fill="#7b5c33"
                       stroke-width="none"
                       opacity="1" />
                    <path
                       id="SvgjsPath3420"
                       d="M122.508 86.806c0.879-0.076 0.105-0.305 0.105-0.305 -0.434-0.234-1.254-0.592-1.254-0.926 0-1.031 1.418-1.295-0.023-1.705 -1.512-1.377 1.16-1.348 1.137-1.395 -0.973-2.379 0.305-1.072 0.844-1.775 1.98-2.596 0.551 0.27 1.629 0 0.387-0.094-0.785-1.529 0.035-1.33 0.539 0.135 0.656 0.58 0.656 0.58 0.398-0.076 1.008-0.68 1.008-0.68 0.75 0.223 1.277 1.289 1.043 1.09 0.375-0.047 0.891-0.223 1.289-0.34 0 0 0.07-0.24 0.141-0.035 0.914 2.66 3.281 2.473 0.563 3.24 0 0-0.176 0 0.375 0.439 2.707 2.168-2.098 1.494 0.457 2.49 0.105-0.1-1.535 0.967-1.535 1.266 0 0.498-1.043 1.816-1.945 1.295 -0.504-0.287-0.586 0.604-0.879 0.193 -0.574-0.803-1.746-0.035-1.313-0.773 0.633-0.521-0.656 0.205-0.902 0.205 -0.832 0 1.078-2.783 3.891-0.715 0.82 0.598-0.867-1.436 0.633-1.436 0.141 0.047 0.105-0.521 0.105-0.68 -0.785-0.152 1.383-0.006 1.383-1.266 0.141 0.029 0.516-0.346-1.629 0 0 0-0.07-0.75-0.035-0.885 0.105-0.439 1.207-0.299 0.902-0.75l-0.797-1.605c-2.578-0.41-1.102-0.668-2.719-0.34 -0.07 0.381-3.445 1.986-3.34 2.73 0.105 0.703 2.121 0.938 0.211 2.18C125.402 91.054 120.434 85.452 122.508 86.806z"
                       fill="#8a6d47"
                       stroke-width="none"
                       opacity="1" />
                    <path
                       id="SvgjsPath3421"
                       d="M126 78.749l0.176 4.395 1.828-3.996 -1.523 4.125 3.234-2.988 -2.988 3.229 4.125-1.523 -3.996 1.84 4.395 0.17 -4.395 0.17 3.996 1.84 -4.125-1.523 2.988 3.229 -3.234-2.988 1.523 4.125 -1.828-3.996L126 89.249l-0.176-4.395 -1.84 3.996 1.523-4.125 -3.223 2.988 2.988-3.229 -4.125 1.523 3.996-1.84 -4.395-0.17 4.395-0.17 -3.996-1.84 4.125 1.523 -2.988-3.229 3.223 2.988 -1.523-4.125 1.84 3.996L126 78.749z"
                       fill="#5c3d14"
                       stroke-width="none"
                       opacity="1" />
                    <path
                       id="SvgjsPath3422"
                       d="M126.797 80.067l-0.539 3.316 1.98-2.713 -1.77 2.859 2.871-1.752 -2.719 1.969 3.316-0.516 -3.27 0.768 3.27 0.797 -3.316-0.539 2.707 1.98 -2.859-1.764 1.746 2.871 -1.957-2.725 0.516 3.316L126 84.667l-0.797 3.264 0.539-3.316 -1.98 2.713 1.77-2.859 -2.871 1.752 2.719-1.969 -3.316 0.516 3.27-0.768 -3.27-0.797 3.316 0.539 -2.707-1.98 2.859 1.764 -1.746-2.871 1.957 2.725 -0.516-3.316 0.773 3.27L126.797 80.067z"
                       fill="#4d3009"
                       stroke-width="none"
                       opacity="1" />
                    <path
                       id="SvgjsPath3423"
                       d="M128.25 83.999c0 1.242-1.008 2.25-2.25 2.25s-2.25-1.008-2.25-2.25 1.008-2.25 2.25-2.25S128.25 82.757 128.25 83.999z"
                       fill="#000000"
                       stroke-width="none"
                       opacity="0.9" />
                    <path
                       id="SvgjsPath3424"
                       d="M123.633 88.312c-0.328 0.328-0.984 0.217-1.453-0.264 -0.48-0.475-0.598-1.125-0.258-1.459 0.328-0.328 0.984-0.211 1.453 0.264C123.855 87.327 123.973 87.978 123.633 88.312z"
                       fill="#ffffff"
                       stroke-width="none"
                       opacity="0.7" />
                    <path
                       id="SvgjsPath3425"
                       d="M130.805 82.815c-0.492 0.498-1.699 0.105-2.684-0.885 -0.984-0.984-1.383-2.186-0.879-2.678 0.492-0.498 1.688-0.105 2.672 0.885C130.91 81.122 131.297 82.323 130.805 82.815z"
                       fill="#ffffff"
                       stroke-width="none"
                       opacity="0.9" />
                  </g>
                </g>
              </g>
              <g
                 id="svga-group-eyesfront-right">
                <path
                   id="SvgjsPath3639"
                   d="M125.801 59.999c-10.493 0-19 11.193-19 25s8.507 25 19 25 19-11.193 19-25S136.294 59.999 125.801 59.999zM129.611 90.262c-9.691 0-17.711-1.976-17.711-5.558 0-3.582 4.925-7.115 17.196-4.923 6.015 1.074 10.782 4.218 10.782 6.014C137.301 90.391 137.688 91.499 129.611 90.262z"
                   fill="#f0c7b1"
                   stroke-width="none"
                   opacity="1" />
                <path
                   id="SvgjsPath3640"
                   d="M122.943 73.48c-9.393-0.036-17.017 5.528-17.04 12.431 -0.025 6.906 7.573 12.529 16.962 12.568 9.391 0.034 18.113-5.529 18.038-12.434C140.802 76.602 132.336 73.519 122.943 73.48zM129.611 90.262c-9.691 0-17.711-1.976-17.711-5.558 0-3.582 4.925-7.115 17.196-4.923 6.015 1.074 10.782 4.218 10.782 6.014C137.301 90.391 137.688 91.499 129.611 90.262z"
                   fill="url(#SvgjsRadialGradient3641)"
                   opacity="1" />
                <path
                   id="SvgjsPath3645"
                   d="M139.879 85.795c-2.578 4.596-2.19 5.704-10.268 4.467 -9.691 0-17.711-1.976-17.711-5.558 0-3.582 4.925-7.115 17.196-4.923C135.111 80.855 139.879 84 139.879 85.795z"
                   fill="url(#SvgjsRadialGradient3646)"
                   opacity="1" />
                <path
                   id="SvgjsPath3649"
                   d="M112.885 88.797c0 0 1.383 0.778 2.354 1.036 1.209 0.318 4.997 0.895 11.562 1.795 -7.49-0.531-10.48-0.82-11.762-1.189C114.022 90.147 112.885 88.797 112.885 88.797z"
                   fill="#c27b55"
                   stroke-width="none"
                   opacity="1" />
                <path
                   id="SvgjsPath3650"
                   d="M115.973 78.555c19.522-1.179 22.656 2.209 25.828 6.735l-3.114 2.69 0.536-2.4c-3.32-4.56-11.839-6.551-23.25-5.247l-3.871 3.383c-0.072 0.063-0.179 0.06-0.247-0.007 -0.067-0.066-0.072-0.174-0.011-0.247C112.464 81.935 113.668 80.808 115.973 78.555zM136.438 91.09l1.653-2.046 -2.25 1.384c-11.621-0.903-18.688-1.109-22.642-3.426 -0.113-0.021-0.228 0.032-0.279 0.135 -0.054 0.102-0.034 0.227 0.048 0.306C114.595 89.756 123.856 90.501 136.438 91.09z"
                   fill="#000000"
                   stroke-width="none"
                   opacity="1" />
              </g>
            </g>
          </g>
          <g
             id="svga-group-facehighlight-single">
            <path
               id="SvgjsPath2903"
               d="M141 113.974c0.035 22.622-18.292 40.994-40.938 41.025 -22.642 0.037-41.028-18.273-41.063-40.9 -0.035-22.62 18.292-41.064 40.937-41.1C122.579 72.964 140.967 91.349 141 113.974z"
               fill="url(#SvgjsRadialGradient2904)"
               opacity="1" />
            <path
               id="SvgjsPath2907"
               d="M137.5 53.999c0 20.711-16.789 37.5-37.499 37.5 -20.711 0-37.501-16.789-37.501-37.5s16.79-37.5 37.501-37.5C120.711 16.499 137.5 33.288 137.5 53.999z"
               fill="url(#SvgjsRadialGradient2908)"
               opacity="1" />
          </g>
          <g
             id="svga-group-eyebrows-left-move"
             transform="matrix(1,0,0,1,0,0)">
            <g
               id="svga-group-eyebrows-left-rotate"
               transform="matrix(1,0,0,1,0,0)">
              <g
                 id="svga-group-eyebrows-left"
                 transform="matrix(1,0,0,1,0,0)">
                <path
                   id="SvgjsPath3653"
                   d="M52.488 73.87c7.475-9.383 20.338-7.822 30.878-6.314 2.681 0.384 5.441 0.672 8.07 1.336 1.884 0.475 3.365 2.622 1.851 4.356 -0.708 0.825-2.253 0.672-3.207 0.652C77.459 73.645 63.193 66.387 52.488 73.87z"
                   fill="#2a232b"
                   stroke-width="none"
                   opacity="1" />
              </g>
            </g>
          </g>
          <g
             id="svga-group-eyebrows-right-move"
             transform="matrix(1,0,0,1,0,0)">
            <g
               id="svga-group-eyebrows-right-rotate"
               transform="matrix(1,0,0,1,0,0)">
              <g
                 id="svga-group-eyebrows-right"
                 transform="matrix(1,0,0,1,0,0)">
                <path
                   id="SvgjsPath3654"
                   d="M147.577 73.49c-2.164-1.448-4.454-2.47-7.043-2.889 -9.497-1.54-27.586 4.79-32.341 3.45 -2.912-0.822-2.323-3.739-1.035-4.458 0.775-0.433 0.99-0.422 7.909-1.612C126.824 65.961 139.988 64.355 147.577 73.49z"
                   fill="#2a232b"
                   stroke-width="none"
                   opacity="1" />
              </g>
            </g>
          </g>
          <g
             id="svga-group-nose-single-move"
             transform="matrix(1,0,0,1,0,0)">
            <g
               id="svga-group-nose-single"
               transform="matrix(1,0,0,1,0,0)">
              <path
                 id="SvgjsPath3537"
                 d="M109.895 118.829c0.19-0.512 0.307-1.047 0.396-1.584 0.033-0.198-0.229-0.929-0.252-0.697 -0.101 0.941-0.612 2.262-1.6 2.551 -1.133 0.329-1.783-0.056-1.886-1.172 -0.104-1.125 0.297-2.619-0.109-3.665 -0.264-0.676-0.856-1.226-1.464-1.606 0.458 2.04 0.823 4.704-1.128 6.164 0.167 0.199 0.319 0.293 0.467 0.333 -0.153 0.026-0.308 0.059-0.467 0.13 -0.771 0.352-3.586 1.015-4.404 0.657 -0.193-0.085-0.622-0.152-1.16-0.204 -0.362-0.315-1.023-1.138-1.332-1.328 -1.215-0.751-1.851-2.069-1.926-3.472 -0.163-2.955 1.373-6.245 4.861-7.528 -3.578-1.004-4.064 4.863-6.408 6.172 -1.402 0.783-2.741 1.479-2.716 3.229 0.008 0.579 0.078 1.419 0.34 2.122 -0.421-0.591-0.699-1.125-0.739-0.653 -0.342 3.979 3.522 2.884 5.042 3.158 1.255 0.227 3.412 0.544 4.459 0.563 1.137 0.02 2.858-0.377 3.981-0.563 1.087-0.181 2.985 0.037 4.381-0.59 0.824-0.371 2.006-0.612 2.006-2.211l-0.402 0.326C109.855 118.916 109.878 118.874 109.895 118.829z"
                 fill="#e1ac8f"
                 stroke-width="none"
                 opacity="1" />
              <path
                 id="SvgjsPath3538"
                 d="M90.642 116.322c0.15-0.48 0.371-0.961 0.73-1.324 -0.631 1.095-0.719 2.661-0.152 3.799 0.697 1.399 1.94 1.104 3.131 0.563 1.191-0.54 1.188-0.938 2.426-0.526 0.963 0.319 1.737 0.795 2.797 0.793 1.132-0.002 1.977-0.471 3.03-0.798 1.278-0.38 2.357-0.162 3.559 0.378 1.13 0.509 2.426 1.15 3.301-0.117 0.773-1.148 0.69-2.922 0.017-4.092 1.51 1.542 1.145 5.938-1.745 5.384 -0.397-0.08-1.098-0.563-1.451-0.469 -0.64 0.175-1.445 0.007-2.091-0.054 -1.175-0.112-2.195-0.108-3.312 0.174 -0.429 0.1-0.869 0.158-1.309 0.154 -0.525-0.007-1.057-0.268-1.556-0.237 -1.4 0.086-1.984-0.214-3.39-0.124 -1.197 0.077-1.955 1.13-3.142 0.177C90.436 119.125 90.275 117.566 90.642 116.322 90.719 116.078 90.497 116.814 90.642 116.322zM101.211 107.662c0.557 0.115 1.063 0.367 1.531 0.684 -1.391-2.209-4.931-1.408-6.339 0.345C97.843 107.926 99.562 107.296 101.211 107.662 101.478 107.719 100.678 107.543 101.211 107.662z"
                 fill="#c27b55"
                 stroke-width="none"
                 opacity="1" />
              <path
                 id="SvgjsPath3539"
                 d="M93.079 117.678c-0.216-1.586 0.406-3.049-0.995-1.972C91.214 116.375 93.418 120.168 93.079 117.678z"
                 fill="#ffe4d6"
                 stroke-width="none"
                 opacity="1" />
            </g>
          </g>
          <g
             id="svga-group-beardwrap"
             transform="matrix(1,0,0,1,0,0)">
            <g
               id="svga-group-beard-single-move"
               transform="matrix(1,0,0,1,0,0)">
              <g
                 id="svga-group-beard-single"
                 transform="matrix(1,0,0,1,0,0)">
                <path
                   id="SvgjsPath3393"
                   d="M150.78 88.74c-3.07 1.75-5.3 2.95-7.16 4.25 -11.33 7.55-12.48 25.22-14.44 41.87 -5.95-10.49-5.03-12.28-12.86-13.87 -9.61-2.1-12.81-3.02-16.32 1.62 -2.72-2.76-3.71-4.23-10.28-2.8 -11.7 2.31-12.28 2.01-15.77 9.5 -0.25 0.59-2.83 4.99-3.13 5.56 -0.57-3.98 0.05-4.11-1.58-12.88 -1.72-9.07-2.45-16.22-6.94-23.31 -4.34-6.03-13.78-10.55-18.4-12.1 0 7.61 0.73 18.98 0.87 20.44 1.75 17.86 8.72 45.74 21.16 57.45 10.4 9.39 21.98 8.75 34.11 8.75 6.25 0 18.06 0.43 25.25-3.06 9.77-3.78 16.54-14.45 20.4-24.19 6.72-16.43 10.41-32.87 10.41-59.39C152.55 87.92 151.86 88.07 150.78 88.74zM103.99 148.16c0.12-0.69 0.49-1.7 0.64-1.97 1.06-2.25 5.94-8.9 6.51-9.39 -6.47 1.93-14.08 2.15-22.05 0.27 1.9 2.27 6.39 8.14 6.92 11.09 -7.06-3.07-16.31-4.46-15.35-12.04 0.51-5.54 6.87-5.79 11.06-6.06 16.78-0.32 26.91-1.16 27.63 6.06C120.26 143.68 111.18 145.1 103.99 148.16z"
                   fill="#2a232b"
                   stroke-width="none"
                   opacity="1" />
                <path
                   id="SvgjsPath3394"
                   d="M156.1 86.58c0 26.52-3.69 42.96-10.41 59.39 -3.86 9.74-10.63 20.41-20.4 24.19 -7.19 3.49-19 3.06-25.25 3.06 -12.13 0-23.71 0.64-34.11-8.75 -12.44-11.71-19.41-39.59-21.16-57.45 -0.14-1.47-0.87-12.83-0.87-20.44 0.99 0.33 2.21 0.81 3.54 1.4C54.06 117.85 55.74 159.26 89 171c-1-2-4-6-4-6s6 4 9 6c0-1-0.98-4.88-0.98-4.88s4.78 3.43 7.78 4.43c0-1-1-4.08-1-4.08l5.23 3.45L113 163c0 0-2.5 5.25-3.5 7.25 3.6-0.97 9.48-5.3 9.48-5.3S118 168 118 169c29.21-16.43 29.26-51.2 33.61-80.71C152.42 87.91 153.48 87.57 156.1 86.58zM89.09 137.07c0.28 0.33 0.61 0.74 0.98 1.21 6.41 4.06 13.67 3.89 19.81 0.08 0.63-0.83 1.11-1.43 1.27-1.56C104.67 138.73 97.05 138.94 89.09 137.07zM100.74 167.83c-0.4-0.75-0.96-1.72-1.12-2.56 0-0.01-0.3-1.24-0.3-1.24 -0.02-0.09-0.38-2.55-0.31-2.55 -0.05-1.35-0.24-3.13-0.34-4.14C97.9 164.14 98.98 165.77 100.74 167.83zM104.36 142.34c-0.01 0 0.01 0.1-0.03 0.27 -0.31 1.44-2.68 4.35-2.9 6.13C101.35 145.78 104.21 143.34 104.36 142.34zM125.13 138.74c1.42 3.26 0.28 5.54-1.25 8.75C125.13 142.96 125.8 141.82 125.13 138.74zM119.63 128.99c1.45 2.19 1.98 2.59 3.75 9.25C121.73 134.59 121.56 133.57 119.63 128.99zM121.13 126.24c1.98 1.63 3.34 3.11 4.75 8.5C124.09 130.74 122.9 128.39 121.13 126.24zM103.88 164.74c0.55-5.94 2.31-9.27 6.25-13.75C107.23 155.53 105.38 159.63 103.88 164.74zM110.13 162.49c2.13-3.31 4.46-8.56 8.75-9.75 -1.54 0.74-2.28 1.58-3.68 3.27 0 0-0.76 0.89-1.88 2.54C112.52 159.71 111.13 161.5 110.13 162.49zM114.38 166.74c2.42-3.78 2.26-4.91 4.75-7.25C116.81 162.7 116.96 164.13 114.38 166.74zM112.63 154.49c1.26-4.02 3.23-7.66 7.25-9.75C116.83 147.09 114.47 151.09 112.63 154.49zM102.38 157.22c-0.96-2.91-0.36-5.47 0.25-8.49C102.46 152.63 102.01 154.66 102.38 157.22zM131.88 152.24c-2.85 3.86-5.51 5.68-9 7C126.17 157.3 127.59 156.02 131.88 152.24zM136.13 140.49c-1.54 7.31-7.2 11.9-13.75 15.5 6.9-5.64 9.47-8.88 9.47-8.88C133.28 145.49 135.05 143 136.13 140.49zM130.13 146.74c-0.05-6.28 1.03-10.04 4.5-15.5C132.47 136.59 130.94 142.19 130.13 146.74zM142.38 120.99c-0.05 2.66 0.02 7.63-7 17.25 0.02-0.05 4.82-10.56 4.76-10.56C141.49 124.53 141.83 123.29 142.38 120.99zM134.63 126.24c-0.15-5.53 1.26-6.58 3.5-12.75C137 119.35 135.56 120.36 134.63 126.24zM146.63 100.99c-1.17 6.98-2.54 8.72-7.25 19C141.37 111.46 143.46 109.24 146.63 100.99zM76.12 147.49c-1.61-3.29-2.62-5.37-1.25-8.75 -0.26 1.18-0.48 1.72 0.01 4.41C74.88 143.16 76.12 147.49 76.12 147.49zM76.62 138.24c1.5-6.29 2.77-7.73 3.75-9.25C77.74 135.05 78.98 133.17 76.62 138.24zM74.12 134.74c1.15-4.74 2.51-6.57 4.75-8.5C76.81 128.67 75.73 131.28 74.12 134.74zM89.87 150.99c4.37 4.74 5.65 8.51 6.25 13.75C94.7 159.56 92.88 155.95 89.87 150.99zM81.12 152.74c1.43 0.38 2.72 1.05 4.19 2.84 0 0 1.31 1.42 3.61 5.37 0.51 0.89 0.95 1.54 0.95 1.54 -1.29-1.32-5.1-6.47-5.08-6.47C82.99 153.87 82.42 153.38 81.12 152.74zM79.87 159.49c2.72 2.57 2.46 3.8 4.75 7.25C82.12 164.22 82.09 162.58 79.87 159.49zM80.12 144.74c1.89 0.97 3.04 1.99 3.71 2.93 0 0 0.46 0.6 0.89 1.21 1.53 2.38 1.84 3.1 2.65 5.61 -0.73-1.37-1.12-2.13-3.16-5.26 -0.43-0.59-0.87-1.17-0.87-1.17C82.13 146.38 81.03 145.44 80.12 144.74zM97.37 148.74c0.67 3.47 0.41 4.42-0.25 6.5C97.51 152.79 97.48 153.09 97.37 148.74zM96.87 142.74c1 0.7 2.15 1.68 2.88 3.9 0 0 1.34 3.22 0.37 7.88C100.19 153.04 99.97 146.06 96.87 142.74zM77.12 159.24c-3.87-1.31-6.51-3.75-9-7C71.41 155.21 73.53 157.08 77.12 159.24zM77.62 155.99c-6.51-3.61-12.1-8.05-13.75-15.5 0.94 2.24 2.1 4.23 4.27 6.63C68.14 147.12 70.84 150.26 77.62 155.99zM65.37 131.24c3.01 4.73 4.56 8.58 4.5 15.5C68.98 141.75 67.37 136.19 65.37 131.24zM64.62 138.24c-3.86-5.17-6.82-10.71-7-17.25C58.87 126.52 61.02 130.04 64.62 138.24zM61.87 113.49c2.42 6.51 3.65 7.56 3.5 12.75C64.61 120.55 63 119.8 61.87 113.49zM60.62 119.99c-3.79-8.25-5.96-11.29-7.25-19C56.88 110.14 58.73 111.91 60.62 119.99z"
                   fill="#1b141c"
                   stroke-width="none"
                   opacity="1" />
                <path
                   id="SvgjsPath3395"
                   d="M150.78 88.74c-3.07 1.75-5.3 2.95-7.16 4.25 -11.33 7.55-12.48 25.22-14.44 41.87 -5.95-10.49-5.03-12.28-12.86-13.87 -9.61-2.1-12.81-3.02-16.32 1.62 -2.72-2.76-3.71-4.23-10.28-2.8 -11.7 2.31-12.28 2.01-15.77 9.5 -0.25 0.59-2.83 4.99-3.13 5.56 -0.57-3.98 0.05-4.11-1.58-12.88 -1.72-9.07-2.45-16.22-6.94-23.31 -4.34-6.03-13.78-10.55-18.4-12.1 0 7.61 0.73 18.98 0.87 20.44 1.75 17.86 8.72 45.74 21.16 57.45 10.4 9.39 21.98 8.75 34.11 8.75 6.25 0 18.06 0.43 25.25-3.06 9.77-3.78 16.54-14.45 20.4-24.19 6.72-16.43 10.41-32.87 10.41-59.39C152.55 87.92 151.86 88.07 150.78 88.74zM136.74 159.03c-4.76 7.25-15.49 12.01-19.96 12.27 -1.55 0.17-8.89 1.47-25.86 0.75 -2.92-0.02-11.3-0.88-15.65-3.16 -16.93-7.07-24.7-35.57-28.17-53.69 -1.03-4.85-2.33-17.53-2.92-28.23 6.64 2.9 14.69 7.96 18.37 14.49 3.19 6.11 3.94 13.31 5.68 20.81 2.21 9.72 1.11 6.72 2.35 13.05 0.04 0.16 0.07 0.32 0.11 0.47 9.23-14.36 4.63-12.18 19.2-15.18 4.51-1.1 7-1.32 10.11 2.4 3.87-4.58 6.28-3.27 16.14-1.2 7.81 1.73 5.93 2.91 12.33 12.65 0.25 0.38 0.76 1.19 0.84 1.34 0.57-2.28 0.85-5.97 1.5-9.47 0.19-1 3.43-16.39 4.59-19.86 3.05-9.63 7.85-12.19 15.67-17.21 1.03-0.73 1.96-1.02 4.76-2.3C154.39 110.33 150.55 139.83 136.74 159.03zM110.01 129.33c-4.89-0.08-5.82 0.4-18.27-0.03 -3.78 0.06-7.55 0.12-9.99 2.5 -2.92 2.67-4.44 10.55 5.77 14.03 3.29 1.04 8.14 2.54 8.94 2.88 0-3.24-5.72-10.27-6.63-11.3 9.19 2.3 17.44 1 20.59-0.27 -1.4 1.52-6.88 8.4-6.88 11.57 8.75-2.92 13.75-3.65 15.99-8.13C121.65 136.73 120.54 129.16 110.01 129.33zM103.99 148.16c0.12-0.69 0.49-1.7 0.64-1.97 1.06-2.25 5.94-8.9 6.51-9.39 -6.47 1.93-14.08 2.15-22.05 0.27 1.9 2.27 6.39 8.14 6.92 11.09 -7.06-3.07-16.31-4.46-15.35-12.04 0.51-5.54 6.87-5.79 11.06-6.06 16.78-0.32 26.91-1.16 27.63 6.06C120.26 143.68 111.18 145.1 103.99 148.16z"
                   fill="#000000"
                   stroke-width="none"
                   opacity="1" />
              </g>
            </g>
          </g>
          <g
             id="svga-group-mustache-single-move"
             transform="matrix(1,0,0,1,0,0)">
            <g
               id="svga-group-mustache-single"
               transform="matrix(1.2000007000000006,0,0,1.2000007000000006,-19.999645041237315,-26.67655973726127)">
              <path
                 id="SvgjsPath3298"
                 d="M100,18.13L100,18.13L100,18.13L100,18.13z"
                 fill="#2a232b"
                 stroke-width="none"
                 opacity="1" />
            </g>
          </g>
          <g
             id="svga-group-hair-front"
             transform="matrix(1,0,0,1,0,0)">
            <path
               id="SvgjsPath3529"
               d="M57.01 18.11c-9.29 3.25-23.25 29-19.24 55.05 1.43 9.27 0.15 4.2 6.29 19.67l4.49 0.3c1.51-4.33-7.32-18.26-4.23-29.88C46.7 54.28 47.46 35.3 57.01 18.11zM155.68 63.24c3.09 11.62-5.74 25.56-4.23 29.88l4.49-0.3c6.13-15.47 4.86-10.4 6.29-19.67 4.01-26.05-9.95-51.8-19.24-55.05C152.54 35.3 153.3 54.28 155.68 63.24z"
               fill="#2a232b"
               stroke-width="none"
               opacity="1" />
            <path
               id="SvgjsPath3530"
               d="M57.01 18.11c-0.91 1.47-1.71 2.96-2.42 4.45 -4.5 3.24-7.95 7.8-11.32 12.53C47.33 26.04 52.68 19.63 57.01 18.11zM38.53 63.85c0-0.01 0.01-0.02 0.01-0.03C38.43 63.98 38.44 63.96 38.53 63.85zM38.26 75c2.63-4.58 2.68-8.41 4.71-10.92 -0.54 4.46 0.81 9.25 1.01 11.92 0.25 3.33 4.14 16.26 4.58 17.12C50.06 88.8 42.2 75 44.72 63.24c1.42-6.64 3.09-15.94 4.72-25.93l-0.05-0.11c-1 0.35-8.23 5.87-10.63 14.29 3.27-5.93 9.35-13.16 10.46-14 -1.37 4.54-3.62 7.54-4.24 14.98 -2.93 2.1-5.68 7.93-7.3 12.72 0.94-1.3 1.04-5.26 7.19-12.14 -0.57 4.24-0.24 6.21-1.78 10.23C40.4 65.55 39.68 69.97 38.26 75zM156.74 35.09c-3.37-4.72-6.83-9.29-11.32-12.53 -0.71-1.49-1.51-2.98-2.42-4.45C147.32 19.63 152.67 26.04 156.74 35.09zM161.46 63.82c0 0.01 0.01 0.02 0.01 0.03C161.56 63.96 161.57 63.98 161.46 63.82zM156.92 63.27c-1.54-4.02-1.21-5.99-1.78-10.23 6.16 6.88 6.25 10.84 7.19 12.14 -1.62-4.79-4.37-10.62-7.3-12.72 -0.62-7.45-2.87-10.44-4.24-14.98 1.11 0.84 7.18 8.07 10.46 14 -2.4-8.41-9.63-13.93-10.63-14.29l-0.05 0.11c1.63 9.99 3.29 19.29 4.72 25.93 2.52 11.76-5.34 25.56-3.83 29.88 0.44-0.86 4.33-13.8 4.58-17.12 0.2-2.67 1.56-7.46 1.01-11.92 2.02 2.52 2.07 6.34 4.71 10.92C160.32 69.97 159.6 65.55 156.92 63.27z"
               fill="#1b141c"
               stroke-width="none"
               opacity="1" />
            <path
               id="SvgjsPath3531"
               d="M44.06 92.83c-2.53-7.48-4.06-9.89-4.99-17.47 -2.24-20.53 1.92-31.89 1.92-31.89 2.25-7.64 8.02-22.11 16.02-25.2 -9.45 3.14-22.48 23.89-19.5 54.51C38.19 81.36 41.43 86.18 44.06 92.83zM162.49 72.79c2.98-30.63-10.05-51.38-19.5-54.51 8 3.08 13.77 17.56 16.02 25.2 0 0 4.16 11.37 1.92 31.89 -0.93 7.58-2.46 9.99-4.99 17.47C158.57 86.18 161.81 81.36 162.49 72.79z"
               fill="#000000"
               stroke-width="none"
               opacity="1" />
          </g>
          <g
             id="svga-group-glasses-single-move"
             transform="matrix(1,0,0,1,0,0)">
            <g
               id="svga-group-glasses-single"
               transform="matrix(1,0,0,1,0,0)">
              <path
                 id="SvgjsPath3587"
                 d="M107.18 85.7c0.25 0.34 0.26 0.68 0.32 1.27 0.06 0.58 0.08 1.01 0.08 1.01s0.11 1.46 0.24 2.33c0.13 0.88 0 1.63-1.2 1.63 -1.48 0-1.56-3.82-1.69-4.67C104.62 85.27 105.99 84.07 107.18 85.7zM92.82 85.7c-0.25 0.34-0.26 0.68-0.32 1.27 -0.06 0.58-0.08 1.01-0.08 1.01s-0.11 1.46-0.24 2.33c-0.13 0.88 0 1.63 1.2 1.63 1.48 0 1.56-3.82 1.69-4.67C95.38 85.27 94.01 84.07 92.82 85.7z"
                 fill="#26120b"
                 stroke-width="none"
                 opacity="0.5" />
              <path
                 id="SvgjsPath3588"
                 d="M148.51 85.14c-0.54 5.69-4.31 13.57-21.04 13.58h-0.04c-7.37 0-13.2-1.97-16.85-5.71 -2.77-2.83-4.15-6.52-4.15-10.94C116.3 76.92 140.48 77.34 148.51 85.14zM51.42 83.67c0.04 5.68 2.88 15.03 21.11 15.05h0.04c7.37 0 13.2-1.97 16.85-5.71 2.5-2.56 3.88-5.81 4.12-9.68C82.89 76.69 58.36 77.42 51.42 83.67z"
                 fill="#ffffff"
                 stroke-width="none"
                 opacity="0.2" />
              <path
                 id="SvgjsPath3589"
                 d="M148.59 83.53c0 0.51-0.02 1.05-0.08 1.6 -8.03-7.8-32.21-8.22-42.07-3.07 0-0.16-0.01-0.31-0.01-0.47 0-0.09 1.62-9.54 19.19-9.54C142.35 72.05 148.59 79.09 148.59 83.53zM74.38 72.05c-16.73 0-22.97 7.04-22.97 11.48 0 0.04 0 0.09 0 0.13 6.95-6.25 31.48-6.98 42.12-0.34 0.04-0.57 0.05-1.14 0.03-1.73C93.57 81.5 91.95 72.05 74.38 72.05z"
                 fill="#ffffff"
                 stroke-width="none"
                 opacity="0.4" />
              <path
                 id="SvgjsPath3590"
                 d="M125.62 71.84c-15.58 0-18.72 7.28-19.28 9.27 -0.84-0.18-1.19-0.23-1.73-0.74 -2.59-2.44-6.69-2.37-9.21 0 -0.54 0.51-0.9 0.56-1.73 0.74 -0.56-1.99-3.7-9.27-19.28-9.27 -16.89 0-23.18 7.17-23.18 11.69 0 5.75 2.77 15.4 21.33 15.4 18.84 0 21.17-11.69 21.25-17.04 1.38-0.29 1.78-0.33 2.51-1.01 2.23-2.09 5.19-2.11 7.42 0 0.74 0.69 1.14 0.72 2.51 1.01 0.08 5.35 2.41 17.04 21.25 17.04 18.55 0 21.33-9.65 21.33-15.4C148.8 79.01 142.51 71.84 125.62 71.84zM72.53 98.22c-17.93-0.02-20.61-9.2-20.61-14.69 0-4.24 6.1-10.98 22.47-10.98 17 0 18.69 8.96 18.69 9.06C93.31 92.22 85.3 98.23 72.53 98.22zM127.47 98.22c-12.77 0.01-20.79-6-20.54-16.61 0-0.09 1.69-9.06 18.69-9.06 16.37 0 22.47 6.74 22.47 10.98C148.09 89.02 145.41 98.2 127.47 98.22z"
                 fill="#26120b"
                 stroke-width="none"
                 opacity="1" />
            </g>
          </g>
        </g>
      </g>
    </g>
  </g>
</svg>
