<svg width="500" height="500" xmlns="http://www.w3.org/2000/svg">

 <metadata id="metadata3732">image/svg+xml</metadata>
 <g>
  <title>background</title>
  <rect fill="none" id="canvas_background" height="502" width="502" y="-1" x="-1"/>
 </g>
 <g>
  <title>Layer 1</title>
  <g stroke="null" id="layer1">
   <g stroke="null" transform="matrix(0.634328171418457,0,0,0.6491370175744628,-63.82474298239595,672.6416775789878) " id="g3787">
    <path stroke="null" fill="#000000" d="m383.17905,-1006.92878c-3.6193,0.11232 -7.5172,1.4493 -11.938,4.9375c-10.83,-4.1763 -21.33,-5.6271 -30.72,2.8751c-14.5,-1.8808 -19.212,2.0002 -22.782,6.5312c-3.183,-0.066 -23.819,-3.272 -33.282,10.844c-23.781,-2.814 -31.297,13.988 -22.781,29.656c-4.8569,7.519 -9.8895,14.947 1.4688,29.281c-4.018,7.9835 -1.5274,16.644 7.9375,27.125c-2.4979,11.223 2.4121,19.141 11.219,25.312c-1.6471,15.358 14.084,24.287 18.781,27.469c1.8037,8.9487 5.5629,17.393 23.531,22.062c2.9632,13.336 13.762,15.639 24.219,18.438c-34.562,20.09 -64.201,46.523 -64,111.38l-5.0625,9.0312c-39.63,24.1 -75.285,101.56 -19.53,164.52c3.6419,19.708 9.7496,33.864 15.188,49.531c8.1338,63.131 61.218,92.692 75.219,96.188c20.517,15.628 42.368,30.457 71.938,40.844c27.875,28.749 58.074,39.706 88.438,39.688c0.44515,-0.00028 0.89853,0.005 1.3438,0c30.364,0.0189 60.562,-10.938 88.438,-39.688c29.569,-10.387 51.421,-25.216 71.938,-40.844c14.001,-3.4959 67.085,-33.057 75.219,-96.188c5.4379,-15.667 11.546,-29.823 15.188,-49.531c55.754,-62.965 20.1,-140.43 -19.531,-164.53l-5.07,-9.03c0.20067,-64.852 -29.438,-91.285 -64,-111.38c10.457,-2.7984 21.256,-5.1014 24.219,-18.438c17.968,-4.6698 21.728,-13.114 23.531,-22.062c4.6978,-3.1813 20.428,-12.111 18.781,-27.469c8.8067,-6.1716 13.717,-14.09 11.219,-25.312c9.4649,-10.481 11.956,-19.141 7.9375,-27.125c11.36,-14.328 6.32,-21.756 1.47,-29.275c8.51,-15.668 1,-32.47 -22.79,-29.656c-9.46,-14.116 -30.09,-10.91 -33.28,-10.844c-3.57,-4.531 -8.28,-8.412 -22.78,-6.5312c-9.39,-8.5022 -19.89,-7.0514 -30.72,-2.875c-12.86,-10.148 -21.37,-2.0133 -31.09,1.0624c-15.57,-5.0877 -19.13,1.881 -26.78,4.7188c-16.98,-3.5881 -22.14,4.224 -30.28,12.469l-9.4688,-0.1875c-25.611,15.093 -38.334,45.826 -42.844,61.625c-4.5121,-15.802 -17.206,-46.535 -42.812,-61.625l-9.4688,0.1875c-8.15,-8.245 -13.31,-16.057 -30.29,-12.469c-7.65,-2.8378 -11.2,-9.8065 -26.78,-4.7188c-6.3797,-2.0185 -12.247,-6.2144 -19.156,-6l0.0125,0.0028z" id="path3737"/>
    <path stroke="null" fill="#75a928" d="m332.18905,-940.52898c67.948,35.031 107.45,63.369 129.09,87.504c-11.082,44.418 -68.896,46.445 -90.036,45.199c4.3284,-2.0147 7.9399,-4.4278 9.2205,-8.1357c-5.3045,-3.7698 -24.113,-0.39719 -37.244,-7.7742c5.0441,-1.045 7.4035,-2.063 9.7629,-5.7854c-12.406,-3.9567 -25.769,-7.3664 -33.628,-13.921c4.2413,0.0524 8.2012,0.9488 13.74,-2.8927c-11.112,-5.9882 -22.969,-10.734 -32.181,-19.887c5.7452,-0.14063 11.939,-0.0568 13.74,-2.1695c-10.17,-6.3007 -18.751,-13.308 -25.854,-20.972c8.04,0.97052 11.435,0.13478 13.379,-1.2656c-7.6878,-7.8742 -17.418,-14.523 -22.057,-24.226c5.9696,2.0575 11.431,2.8451 15.368,-0.1808c-2.6124,-5.8935 -13.805,-9.3696 -20.249,-23.142c6.2844,0.60938 12.95,1.3711 14.283,0c-2.917,-11.884 -7.922,-18.565 -12.831,-25.487c13.45,-0.2 33.828,0.052 32.905,-1.085l-8.3165,-8.4973c13.138,-3.5372 26.581,0.56816 36.34,3.6159c4.3819,-3.4577 -0.0776,-7.83 -5.4238,-12.294c11.165,1.4906 21.254,4.0574 30.373,7.5934c4.8724,-4.3993 -3.1639,-8.7987 -7.051,-13.198c17.249,3.2726 24.557,7.8707 31.82,12.475c5.2694,-5.0508 0.30166,-9.3433 -3.2543,-13.74c13.006,4.817 19.705,11.036 26.758,17.175c2.3912,-3.2271 6.0749,-5.5924 1.6272,-13.379c9.2342,5.3227 16.189,11.595 21.334,18.622c5.7134,-3.6379 3.4039,-8.613 3.4351,-13.198c9.5966,7.8065 15.687,16.114 23.142,24.226c1.5017,-1.0934 2.8166,-4.8017 3.9775,-10.667c22.895,22.212 55.246,78.158 8.3165,100.34c-39.94,-32.94 -87.64,-56.883 -140.5,-74.844l0.0139,-0.0091z" id="path3739"/>
    <path stroke="null" fill="#75a928" d="m692.71905,-940.52898c-67.94,35.034 -107.44,63.364 -129.08,87.504c11.082,44.418 68.896,46.445 90.036,45.199c-4.3284,-2.0147 -7.9399,-4.4278 -9.2205,-8.1357c5.3045,-3.7698 24.113,-0.39719 37.244,-7.7742c-5.0441,-1.045 -7.4035,-2.063 -9.7629,-5.7854c12.406,-3.9567 25.769,-7.3664 33.628,-13.921c-4.2413,0.0524 -8.2012,0.9488 -13.74,-2.8927c11.112,-5.9882 22.969,-10.734 32.181,-19.887c-5.7452,-0.14063 -11.939,-0.0568 -13.74,-2.1695c10.17,-6.3007 18.751,-13.308 25.854,-20.972c-8.04,0.97052 -11.435,0.13478 -13.379,-1.2656c7.6878,-7.8742 17.418,-14.523 22.057,-24.226c-5.9696,2.0575 -11.431,2.8451 -15.368,-0.1808c2.6124,-5.8935 13.805,-9.3696 20.249,-23.142c-6.2844,0.60938 -12.95,1.3711 -14.283,0c2.9223,-11.889 7.9275,-18.57 12.836,-25.492c-13.45,-0.19973 -33.828,0.05235 -32.905,-1.0848l8.3165,-8.4973c-13.138,-3.5372 -26.581,0.56816 -36.34,3.6159c-4.3819,-3.4577 0.0776,-7.83 5.4238,-12.294c-11.165,1.4906 -21.254,4.0574 -30.373,7.5934c-4.8724,-4.3993 3.1639,-8.7987 7.051,-13.198c-17.249,3.2726 -24.557,7.8707 -31.82,12.475c-5.2694,-5.0508 -0.30166,-9.3433 3.2543,-13.74c-13.006,4.817 -19.705,11.036 -26.758,17.175c-2.3912,-3.2271 -6.0749,-5.5924 -1.6272,-13.379c-9.2342,5.3227 -16.189,11.595 -21.334,18.622c-5.7134,-3.6379 -3.4039,-8.613 -3.4351,-13.198c-9.5966,7.8065 -15.687,16.114 -23.142,24.226c-1.5017,-1.0934 -2.8166,-4.8017 -3.9775,-10.667c-22.895,22.212 -55.246,78.158 -8.3165,100.34c39.919,-32.947 87.616,-56.888 140.48,-74.849l-0.0089,0.0007z" id="path3741"/>
    <path stroke="null" fill="#bc1142" d="m594.74019,-488.22323a81.38994,75.0514 0 1 1 -162.77761,0a81.38994,75.0514 0 1 1 162.77761,0z" id="path3743"/>
    <path stroke="null" fill="#bc1142" d="m466.25728,-702.61829a47.48392,40.00604 0 1 1 -94.96783,143.71226a47.48392,40.00604 0 1 1 94.96783,-143.71226z" id="path3745"/>
    <path stroke="null" fill="#bc1142" d="m557.28104,-706.61829a-47.48392,40.00604 0 1 1 94.96783,143.71226a-47.48392,40.00604 0 1 1 -94.96783,-143.71226z" id="path3747"/>
    <path stroke="null" fill="#bc1142" d="m297.70905,-666.49498c36.41,-9.76 12.292,150.63 -17.333,137.47c-32.587,-26.21 -43.083,-102.97 17.333,-137.47z" id="path3749"/>
    <path stroke="null" fill="#bc1142" d="m718.47905,-668.49498c-36.414,-9.7569 -12.292,150.64 17.333,137.48c32.587,-26.213 43.083,-102.98 -17.333,-137.48z" id="path3751"/>
    <path stroke="null" fill="#bc1142" d="m594.76905,-787.93498c62.835,-10.61 115.12,26.722 113.01,94.858c-2.0669,26.121 -136.16,-90.969 -113.01,-94.858z" id="path3753"/>
    <path stroke="null" fill="#bc1142" d="m421.15905,-789.93498c-62.84,-10.61 -115.12,26.73 -113.01,94.86c2.067,26.12 136.16,-90.97 113.01,-94.86z" id="path3755"/>
    <path stroke="null" fill="#bc1142" d="m511.41905,-805.82498c-37.503,-0.97548 -73.495,27.834 -73.582,44.544c-0.10462,20.304 29.651,41.093 73.837,41.62c45.123,0.32321 73.916,-16.64 74.061,-37.594c0.16484,-23.74 -41.039,-48.937 -74.317,-48.571l0.001,0.001z" id="path3757"/>
    <path stroke="null" fill="#bc1142" d="m513.70905,-389.46498c32.697,-1.4271 76.571,10.532 76.657,26.396c0.5427,15.405 -39.79,50.211 -78.826,49.538c-40.427,1.7439 -80.069,-33.116 -79.55,-45.199c-0.60506,-17.716 49.226,-31.548 81.719,-30.735z" id="path3759"/>
    <path stroke="null" fill="#bc1142" d="m392.93905,-483.48498c23.279,28.046 33.891,77.319 14.464,91.844c-18.379,11.088 -63.012,6.5216 -94.736,-39.052c-21.395,-38.242 -18.638,-77.157 -3.6159,-88.589c22.464,-13.684 57.173,4.799 83.889,35.797l-0.0011,0z" id="path3761"/>
    <path stroke="null" fill="#bc1142" d="m629.81905,-492.37498c-25.187,29.502 -39.212,83.31 -20.838,100.64c17.568,13.464 64.729,11.582 99.566,-36.756c25.296,-32.465 16.82,-86.682 2.3708,-101.08c-21.464,-16.602 -52.277,4.6449 -81.099,37.188l0.0002,0.008z" id="path3763"/>
   </g>
  </g>
 </g>
</svg>