<svg width="500" height="500" xmlns="http://www.w3.org/2000/svg">

 <g>
  <title>background</title>
  <rect fill="none" id="canvas_background" height="502" width="502" y="-1" x="-1"/>
 </g>
 <g>
  <title>Layer 1</title>
  <path stroke="null" d="m461.4856,246.71675l-17.49237,-11.1919c-0.1473,-1.76108 -0.3145,-3.51804 -0.49762,-5.26678l15.03213,-14.49187c1.52869,-1.47305 2.21342,-3.65383 1.7994,-5.76465c-0.40208,-2.11905 -1.83921,-3.86367 -3.79386,-4.61666l-19.21613,-7.42698c-0.4817,-1.71993 -0.98728,-3.42752 -1.50481,-5.12688l11.98669,-17.20755c1.22216,-1.74873 1.47296,-4.02415 0.67676,-6.01976c-0.79619,-1.98739 -2.53588,-3.41106 -4.59404,-3.76081l-20.26312,-3.40695c-0.78823,-1.58826 -1.60831,-3.15184 -2.43635,-4.70307l8.51529,-19.31837c0.87183,-1.96681 0.69269,-4.25457 -0.46975,-6.04033c-1.15846,-1.794 -3.12108,-2.84324 -5.21507,-2.76094l-20.56568,0.74064c-1.06292,-1.3743 -2.14574,-2.73626 -3.24847,-4.07352l4.72541,-20.70502c0.47772,-2.1026 -0.12341,-4.30394 -1.60433,-5.83049c-1.46898,-1.52243 -3.60278,-2.15197 -5.63705,-1.65821l-20.02825,4.88c-1.2978,-1.13565 -2.6155,-2.25895 -3.94912,-3.35757l0.72056,-21.25638c0.07962,-2.15197 -0.93553,-4.19696 -2.67123,-5.39022c-1.73968,-1.20148 -3.94116,-1.38253 -5.84008,-0.48965l-18.68666,8.80539c-1.50879,-0.85585 -3.02155,-1.70347 -4.55025,-2.52229l-3.3042,-20.94778c-0.3344,-2.12317 -1.71182,-3.92539 -3.6386,-4.74833c-1.92281,-0.82705 -4.12826,-0.5596 -5.82017,0.69949l-16.66035,12.38927c-1.64016,-0.53902 -3.28828,-1.05747 -4.95232,-1.55123l-7.18565,-19.86562c-0.72852,-2.02442 -2.41645,-3.50981 -4.46665,-3.92951c-2.04622,-0.41558 -4.15215,0.28803 -5.57335,1.85983l-14.02097,15.54934c-1.69191,-0.19339 -3.39577,-0.37032 -5.09564,-0.51433l-10.82823,-18.08397c-1.09477,-1.83103 -3.0335,-2.9461 -5.11952,-2.9461c-2.08603,0 -4.02476,1.11508 -5.11554,2.9461l-10.82823,18.08397c-1.70385,0.14401 -3.40771,0.32094 -5.09962,0.51433l-14.02495,-15.54934c-1.42121,-1.5718 -3.53112,-2.27541 -5.57335,-1.85983c-2.0502,0.42381 -3.73813,1.90509 -4.46665,3.92951l-7.18565,19.86562c-1.66404,0.49376 -3.31216,1.01632 -4.9563,1.55123l-16.65637,-12.38927c-1.69191,-1.2632 -3.89737,-1.53066 -5.82416,-0.69949c-1.92281,0.82293 -3.3042,2.62516 -3.6386,4.74833l-3.3042,20.94778c-1.52869,0.81882 -3.04146,1.66233 -4.55025,2.52229l-18.68666,-8.80539c-1.89892,-0.897 -4.11234,-0.71184 -5.84008,0.48965c-1.7357,1.19325 -2.75085,3.23824 -2.67123,5.39022l0.71657,21.25638c-1.32964,1.09862 -2.64734,2.22192 -3.94912,3.35757l-20.02825,-4.88c-2.03427,-0.48965 -4.16807,0.13578 -5.64103,1.65821c-1.48092,1.52654 -2.08205,3.72789 -1.60433,5.83049l4.71745,20.70502c-1.09477,1.34138 -2.17759,2.69922 -3.24051,4.07352l-20.56568,-0.74064c-2.07408,-0.06172 -4.05661,0.96695 -5.21507,2.76094c-1.16244,1.78577 -1.33761,4.07352 -0.47374,6.04033l8.51927,19.31837c-0.82804,1.55123 -1.64812,3.1148 -2.44033,4.70307l-20.26312,3.40695c-2.05816,0.34563 -3.79386,1.76931 -4.59404,3.76081c-0.79619,1.99561 -0.53743,4.27103 0.67676,6.01976l11.98669,17.20755c-0.52151,1.69936 -1.02709,3.40695 -1.50481,5.12688l-19.22011,7.42698c-1.95067,0.75298 -3.3878,2.4976 -3.79386,4.61666c-0.40606,2.11494 0.27469,4.2916 1.7994,5.76465l15.03611,14.49187c-0.18711,1.74873 -0.35431,3.50981 -0.49762,5.26678l-17.49237,11.1919c-1.77153,1.13153 -2.85037,3.13126 -2.85037,5.29146c0,2.1602 1.07884,4.15993 2.85037,5.28735l17.49237,11.1919c0.14331,1.76108 0.31052,3.51804 0.49762,5.26678l-15.03611,14.49598c-1.52471,1.46894 -2.20546,3.64971 -1.7994,5.76054c0.40606,2.11905 1.84319,3.85956 3.79386,4.61666l19.22011,7.42698c0.47772,1.71993 0.9833,3.42752 1.50481,5.12688l-11.98669,17.21166c-1.21818,1.75285 -1.47694,4.02826 -0.67676,6.01565c0.80017,1.99561 2.53986,3.41929 4.59802,3.76081l20.25914,3.40695c0.79221,1.58826 1.60433,3.15184 2.44033,4.7113l-8.51927,19.31014c-0.86785,1.9627 -0.68871,4.24634 0.47374,6.04033c1.16244,1.79811 3.14098,2.84735 5.21507,2.76094l20.55772,-0.74476c1.07088,1.38253 2.14972,2.73626 3.24847,4.08175l-4.71745,20.70913c-0.47772,2.09848 0.12341,4.2916 1.60433,5.81814c1.46898,1.53477 3.60676,2.14786 5.64103,1.6541l20.02825,-4.87588c1.30178,1.14388 2.61948,2.25484 3.94912,3.34934l-0.71657,21.2605c-0.07962,2.15197 0.93553,4.19285 2.67123,5.39433c1.72774,1.19737 3.94116,1.37841 5.84008,0.48142l18.68666,-8.80128c1.50481,0.86408 3.01757,1.70347 4.55025,2.52229l3.3042,20.93544c0.3344,2.1314 1.71182,3.93362 3.6386,4.75244c1.92281,0.82705 4.13224,0.5596 5.82416,-0.69538l16.64841,-12.3975c1.64414,0.53902 3.29624,1.0657 4.96029,1.55946l7.18565,19.85739c0.72852,2.01619 2.41645,3.50981 4.46665,3.92128c2.04622,0.42793 4.15215,-0.2798 5.57335,-1.85983l14.02495,-15.54111c1.69191,0.20162 3.39577,0.37032 5.09962,0.52668l10.82823,18.07986c1.09079,1.8228 3.02952,2.9461 5.11554,2.9461c2.08603,0 4.02476,-1.11919 5.11952,-2.9461l10.82823,-18.07986c1.70385,-0.15636 3.40373,-0.32506 5.09564,-0.52668l14.02097,15.54111c1.42121,1.58003 3.53112,2.28776 5.57335,1.85983c2.0502,-0.41558 3.73813,-1.90509 4.46665,-3.92128l7.18565,-19.85739c1.66404,-0.49376 3.31615,-1.02044 4.96029,-1.55946l16.65239,12.3975c1.69191,1.25497 3.89737,1.52243 5.82017,0.69538c1.92679,-0.81882 3.3042,-2.62516 3.6386,-4.75244l3.3042,-20.93544c1.52869,-0.81882 3.04146,-1.67056 4.55025,-2.52229l18.68666,8.80128c1.89892,0.897 4.10836,0.71595 5.84008,-0.48142c1.7357,-1.20148 2.74687,-3.23824 2.67123,-5.39433l-0.71657,-21.2605c1.32964,-1.09862 2.64734,-2.20546 3.94514,-3.34934l20.02825,4.87588c2.03427,0.49376 4.16807,-0.11933 5.63705,-1.6541c1.48092,-1.52654 2.08205,-3.71966 1.60433,-5.81814l-4.71745,-20.70913c1.09875,-1.3455 2.18157,-2.69922 3.24051,-4.08175l20.56568,0.74476c2.07408,0.08641 4.05661,-0.96283 5.21507,-2.76094c1.16244,-1.794 1.34159,-4.07764 0.46975,-6.04033l-8.51529,-19.31014c0.83202,-1.55946 1.64812,-3.12303 2.43635,-4.7113l20.26312,-3.40695c2.06214,-0.34152 3.79784,-1.76519 4.59404,-3.76081c0.79619,-1.98739 0.54539,-4.2628 -0.67676,-6.01565l-11.98669,-17.21166c0.51753,-1.69936 1.02311,-3.40695 1.50481,-5.12688l19.21613,-7.42698c1.95466,-0.7571 3.39577,-2.4976 3.79386,-4.61666c0.41402,-2.11494 -0.27071,-4.2916 -1.7994,-5.76054l-15.03213,-14.49598c0.18312,-1.74873 0.35033,-3.50981 0.49762,-5.26678l17.49237,-11.1919c1.77153,-1.12742 2.85037,-3.13126 2.85037,-5.28735c0,-2.15609 -1.07486,-4.15993 -2.84639,-5.29146zm-117.07627,149.98381c-6.68006,-1.48951 -10.92776,-8.29517 -9.49461,-15.22016c1.42917,-6.91676 8.00971,-11.31946 14.68579,-9.82995c6.68006,1.47717 10.93572,8.29517 9.50257,15.20782c-1.43315,6.91264 -8.01767,11.31946 -14.69375,9.84229zm-5.94358,-41.54993c-6.09486,-1.34961 -12.0902,2.65808 -13.39596,8.96998l-6.21031,29.95479c-19.16438,8.99055 -40.44663,13.98576 -62.85948,13.98576c-22.92639,0 -44.67044,-5.24209 -64.17718,-14.61531l-6.20633,-29.95479c-1.30576,-6.30367 -7.30109,-10.31959 -13.39197,-8.96586l-25.58568,5.67824c-4.74929,-5.05281 -9.16817,-10.4348 -13.22876,-16.11716l124.49282,0c1.40926,0 2.34877,-0.26334 2.34877,-1.58826l0,-45.51647c0,-1.32492 -0.93951,-1.58826 -2.34877,-1.58826l-36.40993,0l0,-28.85206l39.37973,0c3.59481,0 19.22011,1.06158 24.21623,21.70488c1.56452,6.34893 5.0001,27.00046 7.34887,33.61273c2.34081,7.41463 11.87125,22.22744 22.02669,22.22744l62.03542,0c0.70463,0 1.45703,-0.08229 2.24925,-0.23042c-4.30343,6.04445 -9.02485,11.76384 -14.10855,17.1088l-26.17486,-5.81403zm-172.18481,40.9245c-6.68006,1.48951 -13.25662,-2.91319 -14.69375,-9.82995c-1.42917,-6.9291 2.81853,-13.73065 9.49859,-15.22016c6.68006,-1.47717 13.2606,2.92553 14.69375,9.84229c1.42917,6.91264 -2.82251,13.72654 -9.49859,15.20782zm-47.22622,-197.93617c2.77075,6.46415 -0.04777,14.03925 -6.29391,16.89895c-6.24614,2.86792 -13.55519,-0.04938 -16.32595,-6.51764c-2.77075,-6.46826 0.04777,-14.03102 6.29391,-16.89895c6.25012,-2.86381 13.55519,0.04938 16.32595,6.51764zm-14.51461,35.56309l26.65258,-12.24114c5.69278,-2.61282 8.26449,-9.509 5.73657,-15.40532l-5.48975,-12.82954l21.58879,0l0,100.57898l-43.55577,0c-3.77794,-13.72654 -5.80425,-28.21429 -5.80425,-43.18757c0,-5.71528 0.29857,-11.36472 0.87183,-16.91541zm116.96083,-9.76822l0,-29.64619l51.41021,0c2.65531,0 18.75036,3.17241 18.75036,15.61106c0,10.32782 -12.34498,14.03102 -22.49645,14.03102l-47.66412,0l0,0.00411zm186.83477,26.68363c0,3.93362 -0.13933,7.8261 -0.418,11.68978l-15.62928,0c-1.56452,0 -2.19351,1.06158 -2.19351,2.64573l0,7.41875c0,17.46266 -9.52646,21.2605 -17.87454,22.22744c-7.94999,0.9258 -16.76385,-3.43986 -17.85066,-8.46799c-4.68958,-27.2638 -12.50422,-33.08606 -24.84522,-43.14642c15.31478,-10.05214 31.2506,-24.88141 31.2506,-44.73057c0,-21.43331 -14.21604,-34.93354 -23.90571,-41.55405c-13.595,-9.26212 -28.64704,-11.11784 -32.70763,-11.11784l-161.63922,0c21.91921,-25.28464 51.62519,-43.1958 85.22455,-49.71343l19.05291,20.65975c4.30741,4.66192 11.4413,4.83474 15.94776,0.37855l21.31808,-21.07534c44.67044,8.59554 82.48963,37.33651 104.28543,76.76739l-14.59423,34.06946c-2.51995,5.89632 0.05175,12.79251 5.74056,15.40532l28.09767,12.89949c0.48568,5.15568 0.74046,10.36485 0.74046,15.64397zm-161.52776,-172.32235c4.9364,-4.88823 12.76696,-4.69484 17.49237,0.41558c4.71745,5.12276 4.5383,13.22455 -0.41004,18.10866c-4.9364,4.88823 -12.76696,4.69895 -17.49237,-0.4197c-4.71347,-5.11453 -4.53432,-13.21632 0.41004,-18.10455zm144.8276,120.46517c2.76677,-6.46415 10.07583,-9.38145 16.32197,-6.51352c6.24614,2.86381 9.06466,10.4348 6.29391,16.89895c-2.76677,6.46826 -10.07583,9.38556 -16.32595,6.51764c-6.23818,-2.86381 -9.0567,-10.43069 -6.28993,-16.90306z" id="path3"/>
 </g>
</svg>