<?xml version="1.0" encoding="UTF-8" standalone="no"?>
<svg
   xmlns:d="https://loading.io/stock/"
   xmlns:dc="http://purl.org/dc/elements/1.1/"
   xmlns:cc="http://creativecommons.org/ns#"
   xmlns:rdf="http://www.w3.org/1999/02/22-rdf-syntax-ns#"
   xmlns:svg="http://www.w3.org/2000/svg"
   xmlns="http://www.w3.org/2000/svg"
   xmlns:sodipodi="http://sodipodi.sourceforge.net/DTD/sodipodi-0.dtd"
   xmlns:inkscape="http://www.inkscape.org/namespaces/inkscape"
   version="1.1"
   id="圖層_1"
   x="0"
   y="0"
   viewBox="0 0 50000 50000"
   xml:space="preserve"
   sodipodi:docname="swengineer.svg"
   width="500"
   height="500"
   inkscape:version="1.0.2 (e86c870879, 2021-01-15, custom)"><defs
     id="defs1826" /><sodipodi:namedview
     pagecolor="#ffffff"
     bordercolor="#666666"
     borderopacity="1"
     objecttolerance="10"
     gridtolerance="10"
     guidetolerance="10"
     inkscape:pageopacity="0"
     inkscape:pageshadow="2"
     inkscape:window-width="3200"
     inkscape:window-height="1734"
     id="namedview1824"
     showgrid="false"
     scale-x="100"
     inkscape:zoom="2.5102291"
     inkscape:cx="292.87184"
     inkscape:cy="160.23645"
     inkscape:window-x="2658"
     inkscape:window-y="-702"
     inkscape:window-maximized="1"
     inkscape:current-layer="g1874" /><path
     d="M 60.27,42.174 A 23.131,23.131 0 0 0 50,39.777 c -3.704,0 -7.189,0.875 -10.27,2.397 C 32.473,45.759 27.5,53.005 27.5,61.38 v 14.467 c 0,2.984 2.52,5.403 5.628,5.403 h 33.745 c 3.108,0 5.628,-2.419 5.628,-5.403 V 61.38 C 72.5,53.005 67.527,45.759 60.27,42.174 Z"
     fill="#c69c6d"
     id="path1795" /><path
     d="m 52.046,50.776 h -4.093 l -1.645,-4.082 a 1.292,1.292 0 0 1 1.199,-1.775 h 4.984 c 0.916,0 1.541,0.926 1.199,1.775 z"
     fill="#f8b26a"
     stroke="#231815"
     stroke-miterlimit="10"
     id="path1797" /><path
     d="m 53.964,72.068 -2.451,2.686 c -0.812,0.89 -2.214,0.89 -3.026,0 l -2.451,-2.686 a 2.051,2.051 0 0 1 -0.521,-1.627 l 2.35,-19.471 h 4.27 l 2.35,19.471 a 2.049,2.049 0 0 1 -0.521,1.627 z"
     fill="#f8b26a"
     stroke="#231815"
     stroke-miterlimit="10"
     id="path1799" /><circle
     cx="50"
     cy="33.263"
     r="14.513"
     fill="#c7b299"
     id="circle1801" /><path
     fill="none"
     stroke="#754c24"
     stroke-miterlimit="10"
     d="M 40.729,31.629 H 37.187"
     id="path1803" /><path
     d="m 40.729,31.629 0.139,1.246 a 1.55,1.55 0 0 0 1.541,1.379 h 3.808 c 0.79,0 1.453,-0.594 1.541,-1.379 l 0.139,-1.246"
     fill="none"
     stroke="#754c24"
     stroke-miterlimit="10"
     id="path1805" /><path
     d="m 47.896,31.629 0.1,-0.904 a 1.55,1.55 0 0 0 -1.541,-1.721 h -4.286 a 1.55,1.55 0 0 0 -1.541,1.721 l 0.1,0.904"
     fill="none"
     stroke="#754c24"
     stroke-miterlimit="10"
     id="path1807" /><path
     d="m 58.896,31.629 0.1,-0.904 a 1.55,1.55 0 0 0 -1.541,-1.721 h -4.286 a 1.55,1.55 0 0 0 -1.541,1.721 l 0.1,0.904"
     fill="none"
     stroke="#754c24"
     stroke-miterlimit="10"
     id="path1809" /><path
     d="m 51.729,31.629 0.139,1.246 a 1.55,1.55 0 0 0 1.541,1.379 h 3.808 c 0.79,0 1.453,-0.594 1.541,-1.379 l 0.139,-1.246"
     fill="none"
     stroke="#754c24"
     stroke-miterlimit="10"
     id="path1811" /><path
     fill="none"
     stroke="#754c24"
     stroke-miterlimit="10"
     d="M 62.812,31.629 H 58.896"
     id="path1813" /><path
     fill="none"
     stroke="#754c24"
     stroke-miterlimit="10"
     d="M 51.729,31.629 H 47.896"
     id="path1815" /><path
     d="M 61.402,75.421 H 38.598 A 3.112,3.112 0 0 1 35.486,72.309 V 57.402 a 3.112,3.112 0 0 1 3.112,-3.112 h 22.803 a 3.112,3.112 0 0 1 3.112,3.112 v 14.907 a 3.111,3.111 0 0 1 -3.111,3.112 z"
     fill="#333333"
     id="path1817" /><path
     d="M 54,78.335 V 69.25 a 2.583,2.583 0 0 0 -2.583,-2.583 h -2.833 a 2.583,2.583 0 0 0 -2.583,2.583 v 9.085 H 35.487 v 2.915 h 29.027 v -2.915 z"
     fill="#666666"
     id="path1819" /><metadata
     id="metadata1821"><d:name>software engineer</d:name><d:tags>developer,coder,coding,computer,mis,software engineer,people</d:tags><d:license>pro</d:license><d:slug>ucg3fh</d:slug><rdf:RDF><cc:Work
         rdf:about=""><dc:format>image/svg+xml</dc:format><dc:type
           rdf:resource="http://purl.org/dc/dcmitype/StillImage" /><dc:title></dc:title></cc:Work></rdf:RDF></metadata><g
     id="g1874"
     transform="matrix(747.11558,0,0,749.50249,-17218.548,-12557.08)"><path
       d="m 67.628308,42.386605 a 23.131,23.131 0 0 0 -10.27,-2.397 c -3.704,0 -7.189,0.875 -10.27,2.397 -7.257,3.585 -12.23,10.831 -12.23,19.206 v 14.467 c 0,2.984 2.52,5.403 5.628,5.403 h 33.745 c 3.108,0 5.628,-2.419 5.628,-5.403 v -14.467 c -0.001,-8.375 -4.974,-15.621 -12.231,-19.206 z"
       fill="#c69c6d"
       id="path1828"
       style="fill:#729ff3;fill-opacity:1" /><circle
       cx="57.358307"
       cy="33.475605"
       r="14.513"
       fill="#c7b299"
       id="circle1834" /><path
       fill="none"
       stroke="#754c24"
       stroke-miterlimit="10"
       d="m 48.087308,31.841605 h -3.542"
       id="path1836" /><path
       d="m 48.087308,31.841605 0.139,1.246 a 1.55,1.55 0 0 0 1.541,1.379 h 3.808 c 0.79,0 1.453,-0.594 1.541,-1.379 l 0.139,-1.246"
       fill="none"
       stroke="#754c24"
       stroke-miterlimit="10"
       id="path1838" /><path
       d="m 55.254308,31.841605 0.1,-0.904 a 1.55,1.55 0 0 0 -1.541,-1.721 h -4.286 a 1.55,1.55 0 0 0 -1.541,1.721 l 0.1,0.904"
       fill="none"
       stroke="#754c24"
       stroke-miterlimit="10"
       id="path1840" /><path
       d="m 66.254308,31.841605 0.1,-0.904 a 1.55,1.55 0 0 0 -1.541,-1.721 h -4.286 a 1.55,1.55 0 0 0 -1.541,1.721 l 0.1,0.904"
       fill="none"
       stroke="#754c24"
       stroke-miterlimit="10"
       id="path1842" /><path
       d="m 59.087308,31.841605 0.139,1.246 a 1.55,1.55 0 0 0 1.541,1.379 h 3.808 c 0.79,0 1.453,-0.594 1.541,-1.379 l 0.139,-1.246"
       fill="none"
       stroke="#754c24"
       stroke-miterlimit="10"
       id="path1844" /><path
       fill="none"
       stroke="#754c24"
       stroke-miterlimit="10"
       d="m 70.170308,31.841605 h -3.916"
       id="path1846" /><path
       fill="none"
       stroke="#754c24"
       stroke-miterlimit="10"
       d="m 59.087308,31.841605 h -3.833"
       id="path1848" /><path
       d="m 68.760308,75.633605 h -22.804 a 3.112,3.112 0 0 1 -3.112,-3.112 v -14.907 a 3.112,3.112 0 0 1 3.112,-3.112 h 22.803 a 3.112,3.112 0 0 1 3.112,3.112 v 14.907 a 3.111,3.111 0 0 1 -3.111,3.112 z"
       fill="#333333"
       id="path1850" /><path
       d="m 61.358308,78.547605 v -9.085 a 2.583,2.583 0 0 0 -2.583,-2.583 h -2.833 a 2.583,2.583 0 0 0 -2.583,2.583 v 9.085 h -10.514 v 2.915 h 29.027 v -2.915 z"
       fill="#666666"
       id="path1852" /></g></svg>
