<svg width="510" height="500" xmlns="http://www.w3.org/2000/svg" preserveAspectRatio="xMidYMid">
 <defs>
  <linearGradient id="linearGradient-1" y2="67.5555556%" x2="100%" y1="32%" x1="-2.77777778%">
   <stop offset="0%" stop-color="#2298BD"/>
   <stop offset="100%" stop-color="#0ED7B5"/>
  </linearGradient>
 </defs>
 <g>
  <title>background</title>
  <rect fill="none" id="canvas_background" height="502" width="512" y="-1" x="-1"/>
 </g>
 <g>
  <title>Layer 1</title>
  <g stroke="null" id="svg_1">
   <path stroke="null" id="svg_2" fill="url(#linearGradient-1)" d="m261.99999,84.00001c-62.66666,0 -101.83334,37.17778 -117.5,111.53332c23.5,-37.17778 50.91666,-51.11945 82.25,-41.825c17.87741,5.303 30.65531,20.6915 44.79884,37.72615c23.04045,27.74908 49.70685,59.86551 107.95116,59.86551c62.66666,0 101.83334,-37.17778 117.5,-111.53332c-23.5,37.17778 -50.91666,51.11945 -82.25,41.825c-17.87741,-5.303 -30.65531,-20.6915 -44.79884,-37.72615c-23.04045,-27.74908 -49.70685,-59.86551 -107.95116,-59.86551zm-117.5,167.29998c-62.66666,0 -101.83334,37.17778 -117.5,111.53332c23.5,-37.17778 50.91666,-51.11945 82.25,-41.825c17.87741,5.303 30.65531,20.6915 44.79884,37.72615c23.04045,27.74908 49.70685,59.86551 107.95116,59.86551c62.66666,0 101.83334,-37.17778 117.5,-111.53332c-23.5,37.17778 -50.91666,51.11945 -82.25,41.825c-17.87741,-5.303 -30.65531,-20.6915 -44.79884,-37.72615c-23.04045,-27.74908 -49.70685,-59.86551 -107.95116,-59.86551z"/>
  </g>
 </g>
</svg>