<svg width="500" height="512" xmlns="http://www.w3.org/2000/svg">

 <g>
  <title>background</title>
  <rect fill="none" id="canvas_background" height="514" width="502" y="-1" x="-1"/>
 </g>
 <g>
  <title>Layer 1</title>
  <g stroke="null" id="svg_4">
   <rect stroke="null" x="29.99999" y="20.00001" id="svg_1" width="448.00001" rx="50" height="464.99999" fill="#3178c6"/>
   <rect stroke="null" x="29.99999" y="20.00001" id="svg_2" width="448.00001" rx="50" height="464.99999" fill="#3178c6"/>
   <path stroke="null" id="svg_3" fill-rule="evenodd" fill="#fff" d="m307.32162,390.02375l0,45.46556c7.12075,3.78902 15.54263,6.62988 25.26563,8.52439s19.97013,2.84177 30.74313,2.84177c10.49913,0 20.47238,-1.04171 29.9215,-3.12604c9.44913,-2.08342 17.7345,-5.51733 24.85525,-10.30084c7.12075,-4.7826 12.75838,-11.03467 16.912,-18.75439s6.23088,-17.26222 6.23088,-28.62838c0,-8.24103 -1.1865,-15.46307 -3.56038,-21.667s-5.79688,-11.72127 -10.27075,-16.552c-4.473,-4.83073 -9.83675,-9.16468 -16.09038,-13.00093s-13.30613,-7.45907 -21.1575,-10.86847c-5.75138,-2.46305 -10.9095,-4.85435 -15.47438,-7.1748c-4.56488,-2.32137 -8.44463,-4.68905 -11.64013,-7.10396c-3.1955,-2.41582 -5.66038,-4.97332 -7.39463,-7.6725c-1.73425,-2.70009 -2.60225,-5.75437 -2.60225,-9.16468c0,-3.12513 0.77613,-5.94328 2.32838,-8.45355s3.74325,-4.66453 6.573,-6.46459c2.83063,-1.79915 6.29913,-3.19687 10.40725,-4.19136c4.109,-0.99448 8.673,-1.49127 13.69463,-1.49127c3.65138,0 7.50838,0.28427 11.571,0.85189c4.06263,0.56854 8.148,1.44495 12.257,2.62834c4.10813,1.1843 8.10163,2.67647 11.98225,4.47562c3.87975,1.80006 7.46288,3.88348 10.74938,6.25207l0,-42.48211c-6.664,-2.65195 -13.94488,-4.6173 -21.84175,-5.89605s-16.95838,-1.91812 -27.18275,-1.91812c-10.40813,0 -20.26763,1.16068 -29.57938,3.48114s-17.50525,5.94328 -24.58138,10.86847c-7.07525,4.92609 -12.6665,11.20087 -16.77463,18.82614c-4.10813,7.62437 -6.16263,16.74091 -6.16263,27.34963c0,13.54494 3.766,25.10092 11.298,34.66793c7.53113,9.5661 18.96563,17.66455 34.3035,24.29534c6.02525,2.5575 11.64013,5.06687 16.84375,7.52991s9.70025,5.02055 13.48813,7.6725c3.78875,2.65195 6.77863,5.54095 8.9705,8.66698c2.191,3.12513 3.2865,6.67711 3.2865,10.65595c0,2.93622 -0.68513,5.65901 -2.0545,8.16929s-3.44663,4.68814 -6.23088,6.53543s-6.25363,3.29133 -10.40725,4.33304c-4.1545,1.04262 -9.01513,1.56302 -14.5845,1.56302c-9.49463,0 -18.89738,-1.72831 -28.21,-5.18584c-9.31175,-3.45662 -17.93925,-8.64246 -25.88163,-15.55752zm-73.63913,-112.01959l56.1925,0l0,-37.3108l-156.625,0l0,37.3108l55.91775,0l0,166.12669l44.51475,0l0,-166.12669z" clip-rule="evenodd"/>
  </g>
 </g>
</svg>